<?xml version="1.0" encoding="UTF-8"?>
<svg version="1.1" xmlns="http://www.w3.org/2000/svg" width="808" height="808">
<path d="M0 0 C3.70725257 0.00314934 7.41369541 -0.02036541 11.12084961 -0.0456543 C32.62883172 -0.10278301 54.01634687 1.5865683 75.17358398 5.56567383 C76.3141626 5.77691895 77.45474121 5.98816406 78.62988281 6.20581055 C143.82257726 18.65026733 204.10771928 46.09970753 256.17358398 87.31567383 C257.57157227 88.42168945 257.57157227 88.42168945 258.99780273 89.55004883 C265.02290526 94.39763488 270.74493408 99.51001261 276.40795898 104.76879883 C278.60740099 106.79427367 280.8323457 108.75661864 283.11108398 110.69067383 C291.76624786 118.20509435 299.78645444 126.56285647 307.17358398 135.31567383 C308.08381804 136.36361349 308.99540386 137.41037976 309.90795898 138.45629883 C316.63372538 146.187838 323.09288 154.06410596 329.17358398 162.31567383 C329.63200684 162.93748535 330.09042969 163.55929688 330.56274414 164.19995117 C368.39520865 215.88511503 393.56133447 275.86142827 403.92358398 339.06567383 C404.22184082 340.87430908 404.22184082 340.87430908 404.52612305 342.71948242 C407.51664503 361.85523245 408.52346858 380.78006497 408.48925781 400.14208984 C408.48610848 403.84934241 408.50962322 407.55578525 408.53491211 411.26293945 C408.59204082 432.77092156 406.90268951 454.15843671 402.92358398 475.31567383 C402.71233887 476.45625244 402.50109375 477.59683105 402.28344727 478.77197266 C389.83899048 543.96466711 362.38955028 604.24980912 321.17358398 656.31567383 C320.43624023 657.24766602 319.69889648 658.1796582 318.93920898 659.13989258 C314.09162293 665.1649951 308.9792452 670.88702393 303.72045898 676.55004883 C301.69498414 678.74949084 299.73263917 680.97443554 297.79858398 683.25317383 C290.28416346 691.90833771 281.92640135 699.92854428 273.17358398 707.31567383 C272.12564433 708.22590788 271.07887805 709.1374937 270.03295898 710.05004883 C262.30141981 716.77581522 254.42515185 723.23496984 246.17358398 729.31567383 C245.55177246 729.77409668 244.92996094 730.23251953 244.28930664 730.70483398 C192.60414278 768.53729849 132.62782954 793.70342432 69.42358398 804.06567383 C67.61494873 804.36393066 67.61494873 804.36393066 65.76977539 804.66821289 C46.63402536 807.65873488 27.70919284 808.66555842 8.34716797 808.63134766 C4.6399154 808.62819832 0.93347256 808.65171307 -2.77368164 808.67700195 C-24.28166375 808.73413067 -45.6691789 807.04477936 -66.82641602 803.06567383 C-67.96699463 802.85442871 -69.10757324 802.64318359 -70.28271484 802.42553711 C-135.4754093 789.98108033 -195.76055131 762.53164012 -247.82641602 721.31567383 C-248.7584082 720.57833008 -249.69040039 719.84098633 -250.65063477 719.08129883 C-256.67573729 714.23371277 -262.39776611 709.12133504 -268.06079102 703.86254883 C-270.26023303 701.83707398 -272.48517773 699.87472901 -274.76391602 697.94067383 C-283.41907989 690.42625331 -291.43928647 682.06849119 -298.82641602 673.31567383 C-299.73665007 672.26773417 -300.64823589 671.2209679 -301.56079102 670.17504883 C-308.28655741 662.44350966 -314.74571203 654.5672417 -320.82641602 646.31567383 C-321.28483887 645.6938623 -321.74326172 645.07205078 -322.21557617 644.43139648 C-360.04804068 592.74623262 -385.2141665 532.76991939 -395.57641602 469.56567383 C-395.87467285 467.75703857 -395.87467285 467.75703857 -396.17895508 465.91186523 C-399.16947706 446.77611521 -400.17630061 427.85128269 -400.14208984 408.48925781 C-400.13894051 404.78200524 -400.16245526 401.0755624 -400.18774414 397.3684082 C-400.24487285 375.86042609 -398.55552154 354.47291094 -394.57641602 333.31567383 C-394.3651709 332.17509521 -394.15392578 331.0345166 -393.9362793 329.859375 C-381.49182251 264.66668055 -354.04238231 204.38153853 -312.82641602 152.31567383 C-312.08907227 151.38368164 -311.35172852 150.45168945 -310.59204102 149.49145508 C-305.74445496 143.46635255 -300.63207723 137.74432373 -295.37329102 132.08129883 C-293.34781617 129.88185682 -291.3854712 127.65691212 -289.45141602 125.37817383 C-281.93699549 116.72300995 -273.57923338 108.70280337 -264.82641602 101.31567383 C-263.77847636 100.40543978 -262.73171009 99.49385395 -261.68579102 98.58129883 C-253.95425184 91.85553243 -246.07798389 85.39637782 -237.82641602 79.31567383 C-237.20460449 78.85725098 -236.58279297 78.39882812 -235.94213867 77.92651367 C-184.25697481 40.09404917 -124.28066157 14.92792334 -61.07641602 4.56567383 C-59.87065918 4.36683594 -58.66490234 4.16799805 -57.42260742 3.96313477 C-38.28685739 0.97261278 -19.36202487 -0.03421076 0 0 Z " fill="#123D67" transform="translate(399.826416015625,-0.315673828125)"/>
<path d="M0 0 C3.70725257 0.00314934 7.41369541 -0.02036541 11.12084961 -0.0456543 C32.62883172 -0.10278301 54.01634687 1.5865683 75.17358398 5.56567383 C76.3141626 5.77691895 77.45474121 5.98816406 78.62988281 6.20581055 C143.82257726 18.65026733 204.10771928 46.09970753 256.17358398 87.31567383 C257.57157227 88.42168945 257.57157227 88.42168945 258.99780273 89.55004883 C265.02290526 94.39763488 270.74493408 99.51001261 276.40795898 104.76879883 C278.60740099 106.79427367 280.8323457 108.75661864 283.11108398 110.69067383 C291.76624786 118.20509435 299.78645444 126.56285647 307.17358398 135.31567383 C308.08381804 136.36361349 308.99540386 137.41037976 309.90795898 138.45629883 C316.63372538 146.187838 323.09288 154.06410596 329.17358398 162.31567383 C329.63200684 162.93748535 330.09042969 163.55929688 330.56274414 164.19995117 C368.39520865 215.88511503 393.56133447 275.86142827 403.92358398 339.06567383 C404.22184082 340.87430908 404.22184082 340.87430908 404.52612305 342.71948242 C407.51664503 361.85523245 408.52346858 380.78006497 408.48925781 400.14208984 C408.48610848 403.84934241 408.50962322 407.55578525 408.53491211 411.26293945 C408.59204082 432.77092156 406.90268951 454.15843671 402.92358398 475.31567383 C402.71233887 476.45625244 402.50109375 477.59683105 402.28344727 478.77197266 C389.83899048 543.96466711 362.38955028 604.24980912 321.17358398 656.31567383 C320.43624023 657.24766602 319.69889648 658.1796582 318.93920898 659.13989258 C314.09162293 665.1649951 308.9792452 670.88702393 303.72045898 676.55004883 C301.69498414 678.74949084 299.73263917 680.97443554 297.79858398 683.25317383 C290.28416346 691.90833771 281.92640135 699.92854428 273.17358398 707.31567383 C272.12564433 708.22590788 271.07887805 709.1374937 270.03295898 710.05004883 C262.30141981 716.77581522 254.42515185 723.23496984 246.17358398 729.31567383 C245.55177246 729.77409668 244.92996094 730.23251953 244.28930664 730.70483398 C192.60414278 768.53729849 132.62782954 793.70342432 69.42358398 804.06567383 C67.61494873 804.36393066 67.61494873 804.36393066 65.76977539 804.66821289 C46.63402536 807.65873488 27.70919284 808.66555842 8.34716797 808.63134766 C4.6399154 808.62819832 0.93347256 808.65171307 -2.77368164 808.67700195 C-24.28166375 808.73413067 -45.6691789 807.04477936 -66.82641602 803.06567383 C-67.96699463 802.85442871 -69.10757324 802.64318359 -70.28271484 802.42553711 C-135.4754093 789.98108033 -195.76055131 762.53164012 -247.82641602 721.31567383 C-248.7584082 720.57833008 -249.69040039 719.84098633 -250.65063477 719.08129883 C-256.67573729 714.23371277 -262.39776611 709.12133504 -268.06079102 703.86254883 C-270.26023303 701.83707398 -272.48517773 699.87472901 -274.76391602 697.94067383 C-283.41907989 690.42625331 -291.43928647 682.06849119 -298.82641602 673.31567383 C-299.73665007 672.26773417 -300.64823589 671.2209679 -301.56079102 670.17504883 C-308.28655741 662.44350966 -314.74571203 654.5672417 -320.82641602 646.31567383 C-321.28483887 645.6938623 -321.74326172 645.07205078 -322.21557617 644.43139648 C-360.04804068 592.74623262 -385.2141665 532.76991939 -395.57641602 469.56567383 C-395.87467285 467.75703857 -395.87467285 467.75703857 -396.17895508 465.91186523 C-399.16947706 446.77611521 -400.17630061 427.85128269 -400.14208984 408.48925781 C-400.13894051 404.78200524 -400.16245526 401.0755624 -400.18774414 397.3684082 C-400.24487285 375.86042609 -398.55552154 354.47291094 -394.57641602 333.31567383 C-394.3651709 332.17509521 -394.15392578 331.0345166 -393.9362793 329.859375 C-381.49182251 264.66668055 -354.04238231 204.38153853 -312.82641602 152.31567383 C-312.08907227 151.38368164 -311.35172852 150.45168945 -310.59204102 149.49145508 C-305.74445496 143.46635255 -300.63207723 137.74432373 -295.37329102 132.08129883 C-293.34781617 129.88185682 -291.3854712 127.65691212 -289.45141602 125.37817383 C-281.93699549 116.72300995 -273.57923338 108.70280337 -264.82641602 101.31567383 C-263.77847636 100.40543978 -262.73171009 99.49385395 -261.68579102 98.58129883 C-253.95425184 91.85553243 -246.07798389 85.39637782 -237.82641602 79.31567383 C-237.20460449 78.85725098 -236.58279297 78.39882812 -235.94213867 77.92651367 C-184.25697481 40.09404917 -124.28066157 14.92792334 -61.07641602 4.56567383 C-59.87065918 4.36683594 -58.66490234 4.16799805 -57.42260742 3.96313477 C-38.28685739 0.97261278 -19.36202487 -0.03421076 0 0 Z M-12.80151367 10.36254883 C-86.75495578 11.66116424 -162.02137177 38.2497737 -221.82641602 81.31567383 C-222.58019531 81.85305176 -223.33397461 82.39042969 -224.1105957 82.9440918 C-235.19592531 90.86379834 -245.7210264 99.18072704 -255.82641602 108.31567383 C-256.35332031 108.78618164 -256.88022461 109.25668945 -257.4230957 109.74145508 C-264.74414267 116.28386332 -271.7454974 123.13783562 -278.70141602 130.06567383 C-279.49837891 130.85796387 -280.2953418 131.65025391 -281.11645508 132.46655273 C-285.89213749 137.25526156 -290.43147442 142.17697288 -294.82641602 147.31567383 C-295.69524414 148.3030957 -296.56407227 149.29051758 -297.45922852 150.30786133 C-305.17412395 159.23198802 -312.06731271 168.65355208 -318.82641602 178.31567383 C-319.25776855 178.92572266 -319.68912109 179.53577148 -320.13354492 180.16430664 C-361.3513598 238.69592777 -387.63114577 312.4417639 -388.06469727 384.41333008 C-388.06954132 385.07310286 -388.07438538 385.73287563 -388.07937622 386.41264153 C-388.11555491 391.40114569 -388.13167304 396.38955035 -388.13891602 401.37817383 C-388.14021389 402.10948517 -388.14151176 402.84079651 -388.14284897 403.5942688 C-388.17268571 425.7471946 -387.7297463 447.43983178 -383.82641602 469.31567383 C-383.63917969 470.4189502 -383.45194336 471.52222656 -383.2590332 472.65893555 C-382.00421011 479.9332252 -380.50250539 487.12752036 -378.82641602 494.31567383 C-378.58052734 495.38269531 -378.33463867 496.4497168 -378.08129883 497.54907227 C-364.91074501 553.75114695 -338.31641503 607.81063105 -302.09057617 652.74731445 C-300.89635736 654.22890226 -299.71072096 655.71739597 -298.52563477 657.20629883 C-289.71099913 668.16588133 -280.05676403 678.17417954 -270.13891602 688.12817383 C-269.24785156 689.02391113 -268.35678711 689.91964844 -267.4387207 690.8425293 C-262.39604535 695.87300614 -257.27266494 700.72476755 -251.82641602 705.31567383 C-251.2225708 705.82622314 -250.61872559 706.33677246 -249.99658203 706.86279297 C-184.71658447 761.53884409 -98.51731358 799.400653 -12.42407227 799.48364258 C-11.18507675 799.48697098 -9.94608124 799.49029938 -8.66954041 799.49372864 C-6.0619239 799.49875843 -3.45430104 799.5011382 -0.84667969 799.50097656 C3.06969273 799.50315085 6.98577728 799.52131617 10.90209961 799.5402832 C89.00804765 799.71650666 166.78582424 773.96150463 230.17358398 728.31567383 C230.92736328 727.7782959 231.68114258 727.24091797 232.45776367 726.68725586 C243.5395291 718.77009569 254.09975789 710.48209488 264.17358398 701.31567383 C264.7865332 700.75912109 265.39948242 700.20256836 266.03100586 699.62915039 C273.23452138 693.05903452 280.26156341 686.31644255 287.17358398 679.44067383 C288.07173828 678.54952881 288.07173828 678.54952881 288.98803711 677.64038086 C358.55937044 607.81641419 396.02956806 508.65566357 396.42358398 403.25317383 C396.42425873 401.95232849 396.42493347 400.65148315 396.42562866 399.31121826 C396.41033551 380.77905983 396.11478245 362.64579659 393.17358398 344.31567383 C392.91617432 342.61701172 392.91617432 342.61701172 392.65356445 340.8840332 C387.55365568 307.72323228 378.82937229 273.83058402 364.2097168 243.48803711 C363.09021986 241.14089203 362.01722686 238.77552096 360.94702148 236.40551758 C352.1261257 217.08972738 341.3910612 198.681623 329.17358398 181.31567383 C328.67503906 180.60217773 328.17649414 179.88868164 327.6628418 179.15356445 C321.07162886 169.75357324 314.24756416 160.72446867 306.67797852 152.09106445 C305.5528896 150.76330616 304.45989799 149.40823134 303.3840332 148.0402832 C297.07028062 140.05720709 290.06669789 132.90329049 282.85424805 125.7355957 C280.80209858 123.69417005 278.76086978 121.64226244 276.72045898 119.58911133 C269.5083884 112.36977905 262.21229739 105.61406525 254.17358398 99.31567383 C253.14533062 98.45312332 252.1219141 97.5847113 251.10717773 96.70629883 C222.24724377 71.95630851 188.25243333 52.65776124 153.17358398 38.31567383 C152.2907373 37.94893555 151.40789063 37.58219727 150.49829102 37.2043457 C126.59748761 27.34441313 101.50693787 21.21104713 76.17358398 16.31567383 C74.92617432 16.07059082 74.92617432 16.07059082 73.65356445 15.82055664 C45.12271844 10.34686555 16.12913222 9.90672378 -12.80151367 10.36254883 Z " fill="#FAFAF9" transform="translate(399.826416015625,-0.315673828125)"/>
<path d="M0 0 C0.87197021 0.38124023 1.74394043 0.76248047 2.64233398 1.15527344 C5.95488523 2.6114003 9.25902978 4.08593786 12.5625 5.5625 C14.04197151 6.22221434 15.52146497 6.88187945 17.00097656 7.54150391 C38.27344708 17.03367113 59.46434911 26.68883191 80.5625 36.5625 C83.66000316 38.00924807 86.75816245 39.45458947 89.85639954 40.89976501 C93.00329218 42.36775267 96.14964915 43.83686034 99.29467773 45.30883789 C105.04473282 47.99862373 110.79920292 50.67730005 116.57296753 53.31588745 C119.17734347 54.50609961 121.77969359 55.7007092 124.38208008 56.89526367 C126.20891196 57.73119864 128.03899391 58.56001937 129.86914062 59.38867188 C131.5175293 60.14567383 131.5175293 60.14567383 133.19921875 60.91796875 C134.16561279 61.35778076 135.13200684 61.79759277 136.12768555 62.25073242 C138.40267672 63.47639447 139.87538677 64.62926838 141.5625 66.5625 C140.52656546 69.84182497 139.45967332 70.62436721 136.45385742 72.43286133 C135.13568916 73.07892254 133.81067648 73.71113669 132.48046875 74.33203125 C131.76771286 74.67595413 131.05495697 75.01987701 130.32060242 75.3742218 C128.07461232 76.45185861 125.8202187 77.50968257 123.5625 78.5625 C122.87222717 78.88651794 122.18195435 79.21053589 121.47076416 79.54437256 C116.6218737 81.81587636 111.75116417 84.03779049 106.875 86.25 C105.33351005 86.95183762 103.79208887 87.65382628 102.25073242 88.35595703 C90.63009178 93.64444122 78.98525491 98.878397 67.328125 104.0859375 C60.67008317 107.06050862 54.02370823 110.06064138 47.37832642 113.06336975 C40.55696991 116.14452209 33.72957258 119.21203477 26.89828491 122.27110291 C22.17533175 124.38680906 17.45873717 126.51575342 12.74751282 128.65744019 C9.98097867 129.91078887 7.20820314 131.14978501 4.43331909 132.38452148 C3.16051057 132.9543128 1.89033038 133.530018 0.62307739 134.11206055 C-1.10996348 134.90700933 -2.85361705 135.67869846 -4.59765625 136.44921875 C-5.56324463 136.88451904 -6.52883301 137.31981934 -7.52368164 137.76831055 C-13.31387377 139.34648357 -18.12781749 137.52426507 -23.3671875 135.0078125 C-24.47803711 134.4816333 -25.58888672 133.9554541 -26.73339844 133.41333008 C-27.91450195 132.84380615 -29.09560547 132.27428223 -30.3125 131.6875 C-32.85453571 130.48093127 -35.39997267 129.28161081 -37.9453125 128.08203125 C-38.58460693 127.77974106 -39.22390137 127.47745087 -39.88256836 127.16600037 C-45.6062616 124.46540449 -51.38397474 121.89935938 -57.1875 119.375 C-68.07917848 114.62360856 -78.91801858 109.76061749 -89.75 104.875 C-105.20056478 97.90827247 -120.6719913 90.99035308 -136.16505432 84.1186676 C-137.51524888 83.51960493 -138.8652192 82.92003659 -140.21495056 82.31993103 C-143.93877935 80.66531283 -147.66799429 79.0240227 -151.40332031 77.39550781 C-152.22861237 77.03373444 -153.05390442 76.67196106 -153.90420532 76.29922485 C-155.50376536 75.59814703 -157.10492389 74.90070206 -158.70785522 74.20736694 C-164.21214064 71.78785936 -164.21214064 71.78785936 -166.4375 69.5625 C-166.5625 66.9375 -166.5625 66.9375 -166.4375 64.5625 C-152.43858771 57.26542919 -138.01214129 50.92268375 -123.59075928 44.51873779 C-116.59961887 41.41405238 -109.61071174 38.30438203 -102.625 35.1875 C-101.82227661 34.82937225 -101.01955322 34.47124451 -100.19250488 34.1022644 C-85.67695672 27.61970374 -71.27453834 20.91301716 -56.89729309 14.1305542 C-50.67647385 11.19845552 -44.4367388 8.30845114 -38.1875 5.4375 C-37.26598145 5.01227051 -36.34446289 4.58704102 -35.39501953 4.14892578 C-33.64538626 3.3471577 -31.8920329 2.5534498 -30.13476562 1.76855469 C-28.19790212 0.90250602 -26.27050405 0.01517078 -24.34960938 -0.88574219 C-14.76347597 -5.20872538 -9.2989725 -4.14469574 0 0 Z " fill="#FDFCF7" transform="translate(416.4375,89.4375)"/>
<path d="M0 0 C24.58995882 2.34190084 24.58995882 2.34190084 33.0625 4.125 C34.08359863 4.33600342 35.10469727 4.54700684 36.15673828 4.7644043 C55.64890902 8.94424469 75.03270594 14.24056321 93 23 C93.63534668 23.30873047 94.27069336 23.61746094 94.92529297 23.93554688 C108.19798367 30.55614556 119.79847504 40.38112526 129 52 C129.48464029 52.49289268 129.96928059 52.98578537 130.46860695 53.4936142 C136.06464256 59.74500828 135.8175061 65.66676886 135.68115234 73.75976562 C135.67945743 75.14023769 135.68041471 76.52071515 135.68380737 77.90118408 C135.68552107 81.62834476 135.65037546 85.35433464 135.60836363 89.08122444 C135.57072337 92.98357244 135.56732086 96.88595062 135.56021118 100.78845215 C135.54160112 108.16913073 135.49241688 115.54927277 135.43211424 122.92971563 C135.36492884 131.33595299 135.33203 139.74221666 135.30194163 148.14865589 C135.23931377 165.43274703 135.13385439 182.71631669 135 200 C131.78434689 198.74107873 128.87496473 197.43286122 125.9453125 195.6015625 C125.17775635 195.1281543 124.4102002 194.65474609 123.61938477 194.16699219 C122.38466431 193.40370605 122.38466431 193.40370605 121.125 192.625 C103.46987014 181.91425381 85.56926394 172.67444505 66 166 C65.27200195 165.75169434 64.54400391 165.50338867 63.79394531 165.24755859 C45.07624794 158.96332469 25.59242727 154.47124776 5.93359375 152.44921875 C2 152 2 152 0 151 C0 101.17 0 51.34 0 0 Z " fill="#FCFBF6" transform="translate(265,282)"/>
<path d="M0 0 C0 49.83 0 99.66 0 151 C-12.87 151.99 -12.87 151.99 -26 153 C-61.30707409 159.5039347 -91.89208524 173.98503518 -121.82958984 193.44213867 C-122.71984863 194.01939697 -123.61010742 194.59665527 -124.52734375 195.19140625 C-125.31874756 195.70904541 -126.11015137 196.22668457 -126.92553711 196.76000977 C-129 198 -129 198 -132 199 C-132.2814617 181.17064103 -132.49248199 163.34186564 -132.62174606 145.5107584 C-132.68338626 137.22963862 -132.76727689 128.94990628 -132.90527344 120.66967773 C-133.02562333 113.44480329 -133.10247039 106.22093428 -133.12906194 98.99508518 C-133.14458611 95.17533686 -133.18053295 91.35846238 -133.26876068 87.53964424 C-133.91911722 58.26055631 -133.91911722 58.26055631 -123.04156494 46.07359314 C-122.03495642 45.04194151 -121.02152471 44.01688399 -120 43 C-119.14895691 42.08670425 -118.29791382 41.17340851 -117.42108154 40.23243713 C-101.99428469 24.35675072 -78.28140391 17.75960389 -58 10.6875 C-56.79569336 10.26662109 -55.59138672 9.84574219 -54.35058594 9.41210938 C-36.50745349 3.29530824 -18.88256749 0 0 0 Z " fill="#FDFCF7" transform="translate(542,283)"/>
<path d="M0 0 C8.96228486 1.55865824 16.24167089 8.18642555 21.76171875 15.19921875 C25.59208072 20.76955588 27.05566275 25.89350348 27.83276367 32.55249023 C29.12758552 43.39675845 32.62805476 51.03575137 38.69824219 60.05224609 C40.88001656 63.31672396 42.93305652 66.66206857 45 70 C44.45859375 68.53240234 44.45859375 68.53240234 43.90625 67.03515625 C43.43676165 65.7111991 42.96805356 64.38696507 42.5 63.0625 C42.26152344 62.42248047 42.02304687 61.78246094 41.77734375 61.12304688 C38.84318292 52.69781364 39.97299095 44.76219758 41.4375 36.125 C41.63956055 34.86429688 41.63956055 34.86429688 41.84570312 33.578125 C42.38854023 30.26284668 42.93503959 27.19488124 44 24 C47.71771826 25.23650982 49.00589702 27.27145513 50.73999023 30.69580078 C51.03204346 31.31181152 51.32409668 31.92782227 51.625 32.5625 C51.93058838 33.19655762 52.23617676 33.83061523 52.55102539 34.48388672 C54.8067406 39.30188348 56.47372249 43.70952607 57 49 C57.10441406 49.85207031 57.20882812 50.70414063 57.31640625 51.58203125 C57.8094695 59.25073847 55.80023411 65.54179692 53.046875 72.59350586 C50.09631423 80.42097649 51.97518491 86.50484836 54.5 94.1875 C57.24622627 102.68510873 57.24622627 102.68510873 58 106 C58.0515625 105.2471875 58.103125 104.494375 58.15625 103.71875 C59.51677006 90.97933493 65.70842399 80.91856465 72 70 C75 71 75 71 76.125 73.1875 C79.83032776 85.09748207 79.53662789 99.74731647 74 111 C71.53012073 114.76656589 68.88260825 118.39969432 66.06542969 121.91381836 C62.19377914 126.91719134 61.32052045 129.67706529 62 136 C62.31550676 138.33581057 62.64948245 140.66918619 63 143 C63.24513733 145.9762795 63.40662145 148.95536441 63.5625 151.9375 C63.60568359 152.71673828 63.64886719 153.49597656 63.69335938 154.29882812 C63.79828077 156.19907117 63.8995245 158.09951669 64 160 C64.12955078 158.85724609 64.12955078 158.85724609 64.26171875 157.69140625 C64.47248047 156.14259766 64.47248047 156.14259766 64.6875 154.5625 C64.81511719 153.55316406 64.94273437 152.54382813 65.07421875 151.50390625 C67.29316536 143.10561466 72.63274413 136.55601911 78.125 130 C78.74503906 129.23816406 79.36507812 128.47632813 80.00390625 127.69140625 C84.61501308 122.12832897 84.61501308 122.12832897 88 121 C91.78778677 128.57557355 89.7436472 143.20230419 87.25 150.9375 C84.09490253 159.23841119 78.58531414 164.62395406 72.3125 170.6875 C70.76235606 172.18669426 69.21655983 173.690401 67.67578125 175.19921875 C66.99427002 175.85752686 66.31275879 176.51583496 65.6105957 177.1940918 C62.88175409 180.25385251 62.73632603 183.57806039 62.28125 187.515625 C62.15363281 188.60230469 62.02601563 189.68898438 61.89453125 190.80859375 C61.69923828 192.51208984 61.69923828 192.51208984 61.5 194.25 C59.90246046 207.99516696 59.90246046 207.99516696 59 214 C59.43699219 212.62328125 59.43699219 212.62328125 59.8828125 211.21875 C64.08629188 198.63474884 69.33758814 191.92499392 80 184 C80.67933594 183.46761719 81.35867188 182.93523437 82.05859375 182.38671875 C85.39587907 179.83889877 86.66871516 179 91 179 C91.84725966 191.49708002 87.33395654 204.73005393 79.0703125 214.21484375 C72.81492708 220.18381043 63.85632928 227 55 227 C54.85304688 227.6084375 54.70609375 228.216875 54.5546875 228.84375 C52.34414272 237.48266062 49.21840771 245.69879952 46 254 C46.4640625 253.5153125 46.928125 253.030625 47.40625 252.53125 C55.5011548 244.67798415 68.75981942 236.30519187 80.375 235.875 C81.24125 235.91625 82.1075 235.9575 83 236 C82.7751803 245.89206659 75.85400739 255.07348264 69.265625 262.0390625 C61.08791725 269.11700955 50.28196729 271.68717586 40.05126953 274.40917969 C39.37435059 274.60415039 38.69743164 274.79912109 38 275 C37.01346436 275.24137695 36.02692871 275.48275391 35.01049805 275.73144531 C31.25196606 277.31520431 30.14251196 278.9689841 27.94921875 282.375 C27.25119141 283.44234375 26.55316406 284.5096875 25.83398438 285.609375 C25.11821821 286.73941149 24.40272641 287.86962181 23.6875 289 C22.95395588 290.13117071 22.21894316 291.2613905 21.48242188 292.390625 C18.04196168 297.57911147 18.04196168 297.57911147 15 303 C15.46148438 302.54109375 15.92296875 302.0821875 16.3984375 301.609375 C26.85997182 291.76808975 42.45161885 288.31964791 56.609375 287.890625 C57.39828125 287.92671875 58.1871875 287.9628125 59 288 C58.47124015 291.85168114 57.60487414 293.92681664 54.97265625 296.77734375 C54.3502002 297.45321533 53.72774414 298.12908691 53.08642578 298.82543945 C52.41853027 299.52241943 51.75063477 300.21939941 51.0625 300.9375 C50.38171387 301.65317139 49.70092773 302.36884277 48.99951172 303.10620117 C44.14740789 308.08617302 39.44512817 312.21687647 33 315 C32.32453125 315.30808594 31.6490625 315.61617188 30.953125 315.93359375 C22.83139336 319.12427404 12.62212744 320.34796066 3.94140625 319.703125 C-1.28446707 320.09674876 -3.32432512 322.04401201 -7 325.5625 C-7.60376465 326.11099609 -8.2075293 326.65949219 -8.82958984 327.22460938 C-10.02459769 328.3115051 -11.21284642 329.40588794 -12.39355469 330.50830078 C-14.42430366 332.39399625 -16.51970739 334.19827954 -18.625 336 C-21.19411309 338.23198965 -23.60913479 340.57781341 -26 343 C-25.10796875 342.57847656 -24.2159375 342.15695312 -23.296875 341.72265625 C-22.12640625 341.17480469 -20.9559375 340.62695312 -19.75 340.0625 C-18.00976562 339.24458984 -18.00976562 339.24458984 -16.234375 338.41015625 C-9.57563118 335.50700828 -3.37596294 335.81644321 3.8125 335.8125 C4.97587891 335.80025391 6.13925781 335.78800781 7.33789062 335.77539062 C13.27948791 335.76524561 18.40471352 335.93341974 24 338 C23.66382045 340.86069769 23.11799411 341.88887933 20.98828125 343.89453125 C8.46530642 352.87085335 -3.22880978 359.27027369 -19 358 C-23.14081114 357.28977227 -27.23595081 356.38599494 -31.32470703 355.4230957 C-39.19097069 353.4500733 -39.19097069 353.4500733 -46.83203125 355.43359375 C-47.81558594 356.09488281 -48.79914063 356.75617188 -49.8125 357.4375 C-55.16527755 360.93410465 -60.64620445 364.03838296 -66.3125 367 C-67.07216064 367.39759521 -67.83182129 367.79519043 -68.61450195 368.20483398 C-70.40780416 369.14013828 -72.20362219 370.07061651 -74 371 C-73.10539063 370.855625 -72.21078125 370.71125 -71.2890625 370.5625 C-54.17649239 367.93541035 -39.20414473 369.08218434 -24 378 C-24.265625 379.87109375 -24.265625 379.87109375 -25 382 C-35.5759338 389.62391344 -52.43443744 390.53698319 -65 389 C-70.87056366 387.50194995 -76.05629536 384.95219688 -81.4765625 382.296875 C-82.61867188 381.74515625 -83.76078125 381.1934375 -84.9375 380.625 C-85.95714844 380.10164063 -86.97679687 379.57828125 -88.02734375 379.0390625 C-93.21881283 377.22443599 -97.78993151 379.13971919 -102.765625 381.03125 C-103.82007813 381.42957031 -104.87453125 381.82789063 -105.9609375 382.23828125 C-107.58902344 382.86283203 -107.58902344 382.86283203 -109.25 383.5 C-110.90128906 384.12455078 -110.90128906 384.12455078 -112.5859375 384.76171875 C-117.86781304 386.70705336 -117.86781304 386.70705336 -123 389 C-122.319375 388.95359375 -121.63875 388.9071875 -120.9375 388.859375 C-105.84043198 388.29725013 -91.44882644 392.54670834 -79.8125 402.375 C-78.884375 403.24125 -77.95625 404.1075 -77 405 C-80.82864935 409.55609272 -86.37021529 410.07944566 -92 411 C-111.63989648 412.56868183 -123.66525557 406.48598351 -139.84619141 396.25927734 C-144.04515163 393.80425163 -146.47029016 394.08901317 -151.12890625 394.99609375 C-152.92811523 395.33930664 -152.92811523 395.33930664 -154.76367188 395.68945312 C-156.01728516 395.93630859 -157.27089844 396.18316406 -158.5625 396.4375 C-161.04269961 396.91675948 -163.52315583 397.39469359 -166.00390625 397.87109375 C-167.10549072 398.08693115 -168.2070752 398.30276855 -169.34204102 398.52514648 C-172 399 -172 399 -174 399 C-174 397.02 -174 395.04 -174 393 C-170.12541702 392.18550288 -166.2502625 391.37375737 -162.375 390.5625 C-160.73337891 390.21735352 -160.73337891 390.21735352 -159.05859375 389.86523438 C-157.99511719 389.64287109 -156.93164062 389.42050781 -155.8359375 389.19140625 C-154.86188965 388.98717041 -153.8878418 388.78293457 -152.88427734 388.57250977 C-149.93121205 387.98634605 -146.97201805 387.47991731 -144 387 C-143.74802856 386.17447632 -143.74802856 386.17447632 -143.4909668 385.33227539 C-137.51938998 366.52190839 -128.20688768 354.62817164 -111 345 C-109.98164063 344.42894531 -108.96328125 343.85789062 -107.9140625 343.26953125 C-104.97578505 341.98945059 -103.15799064 341.72135377 -100 342 C-101.00952296 353.91237094 -106.14145202 365.96779214 -114.9375 374.1875 C-119.3031419 377.72062414 -123.94204147 380.56875906 -129 383 C-109.17584734 379.8487316 -109.17584734 379.8487316 -93.03515625 369.51171875 C-91.6755258 366.37110274 -90.82516987 363.32239449 -90 360 C-89.06731514 356.92213997 -88.06921542 353.866852 -87.0625 350.8125 C-86.80662109 350.03028076 -86.55074219 349.24806152 -86.28710938 348.44213867 C-82.19091802 336.24300677 -73.70454786 325.88072907 -62 320 C-60.68 320 -59.36 320 -58 320 C-57.18781754 332.79187382 -59.62074547 345.6336889 -67.859375 355.703125 C-73.29612813 361.53672143 -79.09910025 366.01729988 -86 370 C-75.25238914 366.24270515 -65.87168566 360.35112822 -56.25537109 354.35498047 C-54.1931863 353.11606234 -52.10062079 352.02985821 -49.95703125 350.94140625 C-46.83825916 349.35088348 -46.83825916 349.35088348 -46.33984375 346.74487305 C-45.98422863 343.87261673 -45.75804205 341.03095134 -45.60546875 338.140625 C-45.53650391 337.02429688 -45.46753906 335.90796875 -45.39648438 334.7578125 C-45.25812902 332.43551139 -45.13037087 330.11255255 -45.01367188 327.7890625 C-44.55497276 320.72590802 -43.46127671 315.19470366 -40 309 C-39.43539062 307.98550781 -38.87078125 306.97101563 -38.2890625 305.92578125 C-34.94840218 300.67953301 -31.73055968 296.07048159 -27 292 C-26.34 292 -25.68 292 -25 292 C-20.19712095 302.56633391 -21.25490577 314.29973076 -25 325 C-27.81930556 330.99852246 -30.88696496 336.78346776 -35 342 C-28.89592177 337.57980542 -22.99331253 333.26231672 -17.80078125 327.7734375 C-14.15752788 324.18550468 -10.03781321 321.12788347 -6 318 C-6.93097166 312.3375018 -7.99745037 306.81994283 -9.625 301.3125 C-13.14651755 288.55598236 -9.50232146 276.10572312 -3.6953125 264.5234375 C-1.80209932 261.70542895 0.26033571 259.97813049 3 258 C9.86201718 267.37809014 10.72100588 278.70104451 9 290 C7.05515579 296.93732868 4.10493187 303.51246781 1 310 C9.41185401 303.71680014 14.94124807 294.33142419 20.625 285.625 C21.07512451 284.95952148 21.52524902 284.29404297 21.98901367 283.60839844 C23.96353721 280.50618786 25.01032642 278.72472677 24.95703125 274.984375 C23.82477331 271.45357881 22.5118481 268.03438998 21.0625 264.625 C15.01881216 249.8127763 14.19029518 237.21256042 20 222 C20.33 221.34 20.66 220.68 21 220 C23.3046875 220.18359375 23.3046875 220.18359375 26 221 C27.6953125 223.22265625 27.6953125 223.22265625 29.125 226.0625 C29.84042969 227.44115234 29.84042969 227.44115234 30.5703125 228.84765625 C31.27800781 230.40806641 31.27800781 230.40806641 32 232 C32.277229 232.60263672 32.55445801 233.20527344 32.84008789 233.82617188 C35.06892834 239.10019598 35.36994357 243.69585924 35.1875 249.375 C35.17396484 250.18066406 35.16042969 250.98632812 35.14648438 251.81640625 C35.11022759 253.87786362 35.05643722 255.93899639 35 258 C35 258.66 35 259.32 35 260 C36.60646395 256.64692897 38.20975177 253.29234852 39.8125 249.9375 C40.26431641 248.99455078 40.71613281 248.05160156 41.18164062 247.08007812 C45.91804804 238.38401032 45.91804804 238.38401032 48 229 C46.65777317 227.45400719 46.65777317 227.45400719 45 226 C31.20055143 209.79461456 29.3038604 195.89222029 30 175 C35.89283196 176.05801203 38.39211909 178.24554676 42 183 C47.76726951 192.86386174 50.18045536 200.99684435 50.0625 212.375 C50.05798828 213.20644531 50.05347656 214.03789062 50.04882812 214.89453125 C50.03713164 216.92971897 50.01919935 218.96486923 50 221 C52.91129226 215.90484619 53.58774634 210.06319672 54.71435547 204.37524414 C55.1206305 202.33444881 55.54211346 200.29720725 55.96484375 198.25976562 C58.06203257 188.20046061 58.06203257 188.20046061 58 178 C56.42229218 175.51621037 56.42229218 175.51621037 54 173.875 C53.17886719 173.22015625 52.35773438 172.5653125 51.51171875 171.890625 C50.68285156 171.26671875 49.85398437 170.6428125 49 170 C38.06575375 161.41021376 31.99035742 149.84452093 29.46875 136.10546875 C29.23878655 134.07731889 29.10543555 132.03842056 29 130 C36.53236324 130 41.48186203 134.20515257 47 139 C53.62990245 145.81304892 57.31595667 153.68823102 59 163 C59.11906643 155.65757019 58.84919034 148.45216606 58.22265625 141.13671875 C57.91146811 136.75278755 57.91077183 132.39200863 58 128 C57.15695312 127.83564453 57.15695312 127.83564453 56.296875 127.66796875 C43.88573362 124.05860621 31.08444104 112.41731359 24.875 101.3828125 C20 92.13815517 20 92.13815517 20 87 C31.83870655 89.16939649 41.41308597 93.94629513 49.2734375 103.24609375 C52.68469208 108.68712198 54.31357675 114.84617669 56 121 C54.32813188 111.3207635 51.96207386 102.0632487 48.98193359 92.70410156 C48.72621582 91.89038086 48.47049805 91.07666016 48.20703125 90.23828125 C47.85862183 89.156073 47.85862183 89.156073 47.50317383 88.05200195 C47 86 47 86 47 82 C46.12859375 81.71769531 45.2571875 81.43539062 44.359375 81.14453125 C39.12337952 79.36063977 34.07409147 77.196632 29 75 C28.12601563 74.64164062 27.25203125 74.28328125 26.3515625 73.9140625 C16.76331779 69.64925965 8.19686242 61.14732288 3 52 C3 51.01 3 50.02 3 49 C15.73084743 48.02487126 24.33989627 53.03152734 34 61 C35.68754101 62.64552754 37.36004241 64.30704558 39 66 C38.70230713 65.47043701 38.40461426 64.94087402 38.09790039 64.39526367 C36.75009488 61.99416434 35.40625859 59.59086631 34.0625 57.1875 C33.59392578 56.35412109 33.12535156 55.52074219 32.64257812 54.66210938 C32.19462891 53.85966797 31.74667969 53.05722656 31.28515625 52.23046875 C30.87144775 51.49207764 30.45773926 50.75368652 30.03149414 49.99291992 C29 48 29 48 28 45 C26.69066846 44.28734781 25.35320529 43.62534603 24 43 C16.10687299 36.82960984 7.60620003 29.53839908 4 20 C3.7009375 19.28714844 3.401875 18.57429688 3.09375 17.83984375 C0.87377481 12.01240887 0.33575153 6.19403692 0 0 Z " fill="#F9FAFB" transform="translate(598,192)"/>
<path d="M0 0 C-0.69234327 15.33540335 -5.34368383 25.89401968 -16.5 36.1875 C-19.27487224 38.65538206 -22.01818041 41.01341101 -25.0078125 43.21875 C-28.95513776 46.49181495 -31.03296279 50.83008136 -33.375 55.3125 C-33.82488281 56.14845703 -34.27476562 56.98441406 -34.73828125 57.84570312 C-35.83707394 59.89132782 -36.92379193 61.94243068 -38 64 C-37.25234375 63.401875 -36.5046875 62.80375 -35.734375 62.1875 C-34.83203125 61.465625 -33.9296875 60.74375 -33 60 C-32.36578125 59.484375 -31.7315625 58.96875 -31.078125 58.4375 C-23.80114533 52.71543051 -16.1299015 48.81408024 -6.75 48.9375 C-5.85796875 48.94652344 -4.9659375 48.95554688 -4.046875 48.96484375 C-3.37140625 48.97644531 -2.6959375 48.98804688 -2 49 C-5.63298296 58.44575569 -13.73435055 67.15324461 -22.75 71.875 C-24.48247669 72.62517373 -26.23587792 73.32760921 -28 74 C-28.64646484 74.25507324 -29.29292969 74.51014648 -29.95898438 74.77294922 C-43.21167962 80 -43.21167962 80 -46 80 C-48.35132608 87.49419522 -50.30548807 95.04829289 -52.125 102.6875 C-52.38925781 103.77611328 -52.65351563 104.86472656 -52.92578125 105.98632812 C-54.20149372 111.31258958 -55.36166346 116.55857025 -56 122 C-55.74605469 121.28714844 -55.49210937 120.57429688 -55.23046875 119.83984375 C-54.1694254 116.88720251 -53.08943728 113.94227586 -52 111 C-51.74992187 110.31421875 -51.49984375 109.6284375 -51.2421875 108.921875 C-47.13313633 98.43670996 -37.60366792 92.3359269 -27.76171875 87.64453125 C-25.44363957 86.7964535 -23.43889604 86.695138 -21 87 C-22.27461848 97.77778662 -29.38325655 108.44983648 -37 116 C-40.51582745 118.62659039 -44.19414036 120.82364485 -48 123 C-49.52447387 123.97348899 -51.04574753 124.9520238 -52.5625 125.9375 C-55.75241158 128 -55.75241158 128 -58 128 C-59.12014799 136.03507735 -59.11441805 143.95929077 -59.0625 152.0625 C-59.05747314 153.41861813 -59.05291234 154.77473808 -59.04882812 156.13085938 C-59.03712079 159.42061994 -59.02072211 162.71028594 -59 166 C-58.75491699 165.02804687 -58.50983398 164.05609375 -58.25732422 163.0546875 C-54.83695503 149.75935095 -48.99476771 139.82527112 -37.875 131.5 C-34.63966412 129.81199867 -32.59853804 129.65728209 -29 130 C-29.82973864 143.55239773 -35.2646587 158.02561644 -45.375 167.25 C-47.64647541 169.20084198 -49.79224578 170.88084684 -52.390625 172.37109375 C-54.7593693 173.76666513 -56.28461926 174.84618676 -58 177 C-58.28697172 179.71346854 -58.28697172 179.71346854 -57.87109375 182.75 C-57.74927734 183.90781982 -57.62746094 185.06563965 -57.50195312 186.25854492 C-56.64563845 192.64133794 -55.58179148 198.97562533 -54.4375 205.3125 C-54.20059815 206.65028915 -53.96426723 207.98817954 -53.72851562 209.32617188 C-53.15791437 212.55181572 -52.58166322 215.77633592 -52 219 C-51.96132812 217.45892578 -51.96132812 217.45892578 -51.921875 215.88671875 C-51.43268263 202.36930278 -48.44971347 190.01515662 -38.94140625 179.78515625 C-35.1434851 176.2659816 -35.1434851 176.2659816 -33 175 C-32.01 175.33 -31.02 175.66 -30 176 C-29.94103132 179.14575207 -29.90608397 182.2913586 -29.875 185.4375 C-29.85824219 186.31599609 -29.84148437 187.19449219 -29.82421875 188.09960938 C-29.71919004 202.33099949 -34.45520486 212.78223148 -44.265625 223.125 C-46.79707984 225.86170793 -48.02787192 227.22555885 -47.890625 231.0390625 C-46.98208762 236.0997751 -44.81475329 240.69756537 -42.75 245.375 C-42.36714844 246.26960937 -41.98429687 247.16421875 -41.58984375 248.0859375 C-39.05192681 253.92569286 -36.19817444 259.49502851 -33 265 C-33.32097656 263.86046875 -33.64195312 262.7209375 -33.97265625 261.546875 C-36.91703898 249.68588949 -35.99568297 237.70289538 -30 227 C-29.64292969 226.33097656 -29.28585938 225.66195312 -28.91796875 224.97265625 C-27.46472297 222.51198112 -26.44644688 221.17361823 -23.75 220.125 C-23.1725 220.08375 -22.595 220.0425 -22 220 C-15.68600846 229.58342826 -15.57780694 243.68196328 -17.46484375 254.71875 C-19.13979039 260.82388095 -22.01603377 266.40038982 -24.890625 272.01953125 C-26.15940107 275.42825005 -25.98462952 276.56807364 -25 280 C-23.74555286 282.40665849 -23.74555286 282.40665849 -22.12109375 284.765625 C-21.52876953 285.65636719 -20.93644531 286.54710937 -20.32617188 287.46484375 C-19.70291016 288.38394531 -19.07964844 289.30304688 -18.4375 290.25 C-17.54321289 291.60544922 -17.54321289 291.60544922 -16.63085938 292.98828125 C-12.52658787 299.10289796 -8.03020643 304.6241061 -3 310 C-4.45169848 304.90824938 -5.944401 300.05550036 -8.1875 295.25 C-12.29219961 285.16191134 -10.48447089 273.06624925 -7 263 C-5.39453125 260.6328125 -5.39453125 260.6328125 -4 259 C0.51545941 260.50515314 2.9023244 263.93077486 5 268 C9.62174508 281.26440838 11.82527015 292.20171086 6.77880859 305.45678711 C5.1703293 309.82306892 4.24173931 313.37620054 5 318 C6.82732289 320.39765075 9.05035941 322.11748025 11.4375 323.9375 C12.72592771 324.97443183 14.01368763 326.01219395 15.30078125 327.05078125 C15.93322754 327.5504541 16.56567383 328.05012695 17.21728516 328.56494141 C20.31671735 331.05993763 23.20922621 333.78049265 26.1328125 336.4765625 C28.00323507 338.0026395 29.80396516 339.01422436 32 340 C31.278125 339.0925 30.55625 338.185 29.8125 337.25 C22.11957926 326.51059497 20.1600731 314.92087549 21 302 C21.73920436 298.54894707 22.7266174 295.28957171 24 292 C33.37918367 296.04347029 38.14619599 306.11891533 42 315 C43.16402727 318.49208181 43.21118508 321.39147772 43.31640625 325.07421875 C43.33718735 325.7580513 43.35796844 326.44188385 43.37937927 327.1464386 C43.44466154 329.3266921 43.50366017 331.50706405 43.5625 333.6875 C43.60570553 335.16732986 43.64932047 336.64714783 43.69335938 338.12695312 C43.80032083 341.75117622 43.90164823 345.37553189 44 349 C44.73323486 349.27763184 45.46646973 349.55526367 46.22192383 349.84130859 C48.79092076 350.91279637 51.06313059 352.11412072 53.44921875 353.5390625 C54.70955933 354.2810791 54.70955933 354.2810791 55.99536133 355.03808594 C56.88376709 355.56176758 57.77217285 356.08544922 58.6875 356.625 C68.18220595 362.15155757 77.86103902 366.79090753 88 371 C87.39414062 370.67128906 86.78828125 370.34257813 86.1640625 370.00390625 C74.57177438 363.42305346 63.42931308 354.51137699 59.58984375 341.2890625 C59.29787109 340.15597656 59.29787109 340.15597656 59 339 C58.79503906 338.24460937 58.59007812 337.48921875 58.37890625 336.7109375 C56.89553841 330.75700589 56.01972097 324.94083708 58 319 C64.11261199 320.3753377 67.5938487 323.81746916 72 328 C73.02867187 328.89912109 73.02867187 328.89912109 74.078125 329.81640625 C84.00175084 338.88781231 87.16208939 351.02425762 90.703125 363.55859375 C90.93580078 364.33702637 91.16847656 365.11545898 91.40820312 365.91748047 C92 368 92 368 92.546875 370.91015625 C95.15124679 374.65569095 99.74656874 374.95370934 104 376 C105.71692376 376.51223497 107.43059391 377.03551766 109.140625 377.5703125 C109.98367188 377.82683594 110.82671875 378.08335937 111.6953125 378.34765625 C113.41491645 378.87089965 115.13365466 379.3969958 116.8515625 379.92578125 C121.22054287 381.24991838 125.46057475 382.39177636 130 383 C129.41734375 382.76667969 128.8346875 382.53335937 128.234375 382.29296875 C114.60170171 376.22685784 106.32109373 366.70101979 101 353 C99.73012353 349.04740437 99 346.16762157 99 342 C111.98835984 343.65481325 124.45663308 352.64102852 132.421875 362.81640625 C137.05086136 369.29460107 143 378.85950464 143 387 C143.73114014 387.14622803 144.46228027 387.29245605 145.21557617 387.44311523 C150.82470703 388.56494141 156.43383789 389.68676758 162.04296875 390.80859375 C163.57473755 391.11494751 163.57473755 391.11494751 165.13745117 391.42749023 C167.75830078 391.95166016 170.37915039 392.47583008 173 393 C173.042721 394.66611905 173.04063832 396.33382885 173 398 C172.67 398.33 172.34 398.66 172 399 C166.9198824 398.91296347 161.97063775 398.08274484 157.0703125 396.78125 C147.75775313 394.13378728 147.75775313 394.13378728 138.35546875 395.0859375 C135.33614116 396.86110058 132.69138111 398.76208092 130 401 C117.94266317 410.35370253 103.88029225 412.12428875 89 411 C84.70083529 410.36402889 80.7787959 409.20429761 77 407 C77.1015625 405.28125 77.1015625 405.28125 78 403 C80.10765184 401.31387853 82.09212606 399.90477672 84.375 398.5 C85.33055786 397.90626587 85.33055786 397.90626587 86.30541992 397.30053711 C97.13879011 390.74296145 107.58241256 389.10637356 120 388 C115.91781844 386.51764107 111.83406302 385.03966659 107.75 383.5625 C106.59113281 383.14162109 105.43226563 382.72074219 104.23828125 382.28710938 C103.12324219 381.88427734 102.00820313 381.48144531 100.859375 381.06640625 C99.31975098 380.5086853 99.31975098 380.5086853 97.74902344 379.93969727 C96.8418457 379.62959717 95.93466797 379.31949707 95 379 C93.97314087 378.62609131 93.97314087 378.62609131 92.92553711 378.24462891 C90.2077446 377.89934831 88.75259604 378.77701196 86.33203125 380.01953125 C85.43806641 380.46490234 84.54410156 380.91027344 83.62304688 381.36914062 C82.23182617 382.08360352 82.23182617 382.08360352 80.8125 382.8125 C65.60899978 390.59228968 52.2052928 391.86597468 35.703125 387.22265625 C31.0770533 385.69527182 27.02730895 383.72962051 23 381 C23 380.01 23 379.02 23 378 C42.23827222 368.58552636 58.45667182 369.00546396 79 373 C77.88625 372.52691406 76.7725 372.05382812 75.625 371.56640625 C63.96104652 366.53872924 52.59169426 361.0611295 42 354 C36.96909359 354.2558088 32.19354571 355.15179471 27.25927734 356.14941406 C9.40058331 359.71020953 -2.63326652 357.08441884 -18 347 C-20.59482832 345.11524294 -22.71935029 343.28064971 -25 341 C-25 340.01 -25 339.02 -25 338 C-9.40090189 335.10009248 9.68352882 334.33535004 24 342 C21.29440385 339.43459719 18.5850335 336.87321422 15.875 334.3125 C15.11445313 333.59126953 14.35390625 332.87003906 13.5703125 332.12695312 C12.07103842 330.7116901 10.56337823 329.30525379 9.04711914 327.90820312 C7.82830604 326.7720978 6.63053293 325.61157523 5.48217773 324.40429688 C1.02954554 320.00169425 -3.77713414 320.13517971 -9.6875 319.875 C-17.42256513 319.35172696 -24.69194034 318.79154711 -32 316 C-32.68449219 315.74734375 -33.36898437 315.4946875 -34.07421875 315.234375 C-44.30655134 310.81175581 -52.86032191 301.0463856 -59 292 C-59 291.01 -59 290.02 -59 289 C-41.7182132 289.60110563 -27.59504963 292.97184785 -14 304 C-14.68964844 303.06800781 -15.37929687 302.13601563 -16.08984375 301.17578125 C-16.5394043 300.56508789 -16.98896484 299.95439453 -17.45214844 299.32519531 C-18.45179436 297.97064551 -19.4564562 296.61978466 -20.46582031 295.27246094 C-22.8946371 292.00284086 -25.20098825 288.7626982 -27.20703125 285.21484375 C-31.034031 278.59163226 -31.034031 278.59163226 -37.4375 274.703125 C-39.99352301 274.23172731 -42.56495931 273.83777333 -45.14453125 273.51953125 C-57.65676968 271.83348494 -67.01993475 266.0574844 -74.6875 256.3125 C-84 243.39100346 -84 243.39100346 -84 236 C-69.75736897 237.33770568 -57.81668767 243.92793937 -47 253 C-47.44859375 251.845 -47.8971875 250.69 -48.359375 249.5 C-49.42074012 246.68948538 -50.32529795 243.90747 -51.078125 241 C-53.39124397 232.5445514 -53.39124397 232.5445514 -59.375 226.50390625 C-62.56788155 224.79972266 -65.88313004 223.35963064 -69.18603516 221.88330078 C-80.82588328 216.21533705 -85.76019712 204.39948895 -90.16015625 192.9921875 C-91.73444951 188.20340706 -92.32787725 184.02745112 -92 179 C-81.98979815 180.44031681 -73.19325398 188.38329652 -67 196 C-63.00936603 202.24534216 -61.04408944 208.9366498 -59 216 C-59.22719727 214.6234021 -59.22719727 214.6234021 -59.45898438 213.21899414 C-62.18324012 196.33594305 -64.53437783 179.63278134 -64.4375 162.5 C-64.43418671 161.81471222 -64.43087341 161.12942444 -64.42745972 160.42337036 C-64.35557561 152.00917902 -63.71314393 143.82688215 -62.5625 135.5 C-61.77876958 129.72921006 -61.77876958 129.72921006 -63.21484375 124.1484375 C-64.99574096 121.88042398 -66.92579881 119.99797329 -69 118 C-70.1591948 116.28595466 -71.26438537 114.53413557 -72.3125 112.75 C-72.78300781 111.96109375 -73.25351563 111.1721875 -73.73828125 110.359375 C-77.70993544 102.93250462 -78.1982916 95.82937973 -78.25 87.5625 C-78.270625 86.74201172 -78.29125 85.92152344 -78.3125 85.07617188 C-78.34741622 79.60741878 -77.49387897 75.87618967 -75 71 C-70.8784089 72.2486825 -69.56822741 74.96826151 -67.59570312 78.52148438 C-67.21349609 79.23626953 -66.83128906 79.95105469 -66.4375 80.6875 C-66.05142578 81.38294922 -65.66535156 82.07839844 -65.26757812 82.79492188 C-60.80139111 90.94362083 -58.57638475 97.66256706 -58 107 C-57.0197441 103.58364488 -56.04098554 100.16686255 -55.0625 96.75 C-54.78470703 95.78191406 -54.50691406 94.81382812 -54.22070312 93.81640625 C-53.81948242 92.41455078 -53.81948242 92.41455078 -53.41015625 90.984375 C-53.16402588 90.12553711 -52.91789551 89.26669922 -52.66430664 88.38183594 C-52.33547485 87.20282715 -52.33547485 87.20282715 -52 86 C-51.67128906 84.99694824 -51.67128906 84.99694824 -51.3359375 83.97363281 C-50.90501064 81.44193751 -51.4168023 79.87096265 -52.21484375 77.4375 C-52.48949463 76.56416016 -52.76414551 75.69082031 -53.04711914 74.79101562 C-53.34094482 73.86998047 -53.63477051 72.94894531 -53.9375 72 C-58.00041503 58.46232565 -58.66020636 46.16890967 -52.60546875 32.95703125 C-49.83967486 27.99260626 -49.83967486 27.99260626 -48 26 C-46.68 26 -45.36 26 -44 26 C-40.67853848 41.40130076 -39.93038984 53.90433047 -45 69 C-44.40832031 67.92621094 -43.81664062 66.85242188 -43.20703125 65.74609375 C-42.40907527 64.30977298 -41.61088566 62.87358198 -40.8125 61.4375 C-40.42513672 60.73302734 -40.03777344 60.02855469 -39.63867188 59.30273438 C-37.69436623 55.81583912 -35.71576908 52.57052711 -33.26171875 49.41796875 C-30.7544823 45.99484239 -30.29457242 43.13709477 -30 38.875 C-28.60358836 26.13117129 -24.625243 16.64153106 -15 8 C-4.76234004 0 -4.76234004 0 0 0 Z " fill="#F9FAFB" transform="translate(211,192)"/>
<path d="M0 0 C4.48385483 1.40638143 8.72292954 3.15204017 12.9765625 5.1328125 C13.64709152 5.44164368 14.31762054 5.75047485 15.00846863 6.06866455 C16.45727177 6.73601615 17.90549047 7.40463777 19.35317993 8.07440186 C23.26962059 9.88555114 27.19116642 11.68555274 31.11328125 13.484375 C32.33204201 14.04341019 32.33204201 14.04341019 33.57542419 14.61373901 C43.79624353 19.29271347 54.07396166 23.84349028 64.3581543 28.38110352 C70.92688872 31.2821524 77.4802822 34.20124471 83.9765625 37.26171875 C85.51219849 37.98125732 85.51219849 37.98125732 87.07885742 38.71533203 C88.91535959 39.58080466 90.74677602 40.45719927 92.5715332 41.34716797 C93.36132568 41.7185791 94.15111816 42.08999023 94.96484375 42.47265625 C95.6312085 42.79500244 96.29757324 43.11734863 96.98413086 43.44946289 C101.29739518 44.62742232 105.15172462 42.63715735 109.05859375 40.875 C110.06438477 40.42463379 111.07017578 39.97426758 112.10644531 39.51025391 C113.20569336 39.01187012 114.30494141 38.51348633 115.4375 38 C117.23956662 37.19078226 119.04163769 36.38157439 120.84384155 35.57266235 C122.81901045 34.68519566 124.79310982 33.79538109 126.76708984 32.90527344 C131.22174319 30.89811869 135.68273373 28.90527528 140.14453125 26.9140625 C152.86888461 21.23358851 165.59174789 15.55015158 178.28515625 9.80078125 C179.01417145 9.47072083 179.74318665 9.1406604 180.49429321 8.80059814 C183.93789722 7.24110344 187.38043202 5.67931581 190.82128906 4.11376953 C192.02108398 3.56962402 193.22087891 3.02547852 194.45703125 2.46484375 C195.50866455 1.986521 196.56029785 1.50819824 197.64379883 1.01538086 C200 0 200 0 201 0 C201.07460523 5.67420636 201.12881608 11.34812208 201.16479492 17.02270508 C201.17980652 18.94983906 201.20022216 20.87693932 201.22631836 22.80395508 C201.26303943 25.58683639 201.27980292 28.36926288 201.29296875 31.15234375 C201.30845261 32.00271713 201.32393646 32.85309052 201.33988953 33.72923279 C201.34208468 41.67475207 199.70293729 49.43747254 194.046875 55.3359375 C176.89270129 69.28188789 149.61936188 74.84841841 128.9375 82.125 C128.11974091 82.41280334 127.30198181 82.70060669 126.45944214 82.99713135 C124.12882562 83.81584029 121.79712474 84.63135867 119.46484375 85.4453125 C118.41985718 85.81172852 118.41985718 85.81172852 117.35375977 86.18554688 C99.00132404 92.56166046 84.51974438 87.48928147 67.125 80.6875 C64.9443786 79.85717383 62.7629756 79.02889752 60.58081055 78.20263672 C54.37174918 75.84071239 48.1843145 73.42582132 42 71 C40.40038572 70.37703592 38.80062722 69.75444195 37.20068359 69.13232422 C6.81005106 57.28779094 6.81005106 57.28779094 2.07939148 46.99745178 C0.12290541 41.33153846 -0.40452834 36.34034791 -0.29296875 30.37109375 C-0.28872391 29.49598648 -0.28447906 28.62087921 -0.28010559 27.71925354 C-0.26347981 24.95833928 -0.22585966 22.19818895 -0.1875 19.4375 C-0.17243228 17.55144293 -0.15874756 15.66537427 -0.14648438 13.77929688 C-0.11362937 9.18590917 -0.06196135 4.59308353 0 0 Z " fill="#FCFBF7" transform="translate(303,197)"/>
<path d="M0 0 C13 0 13 0 15 1 C15.33 47.86 15.66 94.72 16 143 C24.415 143.495 24.415 143.495 33 144 C37.34053494 144.49700782 41.62446056 145.02881754 45.9375 145.6875 C47.07936768 145.86120117 48.22123535 146.03490234 49.39770508 146.21386719 C85.05472264 151.86492786 123.35825799 162.53390151 153 184 C155.17594848 185.5597334 157.36473018 187.09554239 159.5625 188.625 C160.49191406 189.29789063 161.42132813 189.97078125 162.37890625 190.6640625 C165.61332928 192.31260598 166.57502314 192.01632294 170 191 C172.57149614 189.56815167 172.57149614 189.56815167 175.140625 187.71875 C176.1200708 187.04577881 177.0995166 186.37280762 178.10864258 185.67944336 C179.14529053 184.96022705 180.18193848 184.24101074 181.25 183.5 C220.40654888 156.94258957 268.92475041 144 316 144 C316 96.81 316 49.62 316 1 C320.95 1 325.9 1 331 1 C331.02311728 21.3226013 331.04097834 41.64519891 331.05181217 61.96781063 C331.05697549 71.40326827 331.06401887 80.83871761 331.07543945 90.27416992 C331.0853852 98.49503683 331.09185317 106.71589774 331.09408849 114.9367705 C331.09539579 119.29242322 331.09848281 123.64805875 331.10573006 128.00370598 C331.11248855 132.09856614 331.11461731 136.19340192 331.11310768 140.28826714 C331.11338409 141.79558952 331.11539022 143.30291267 331.11920547 144.81023026 C331.12413999 146.85927499 331.12239819 148.90833264 331.12025452 150.9573822 C331.12163721 152.68159598 331.12163721 152.68159598 331.12304783 154.44064236 C331 157 331 157 330 158 C328.05095231 158.18222339 326.09593267 158.30091401 324.140625 158.39453125 C322.27096069 158.49362793 322.27096069 158.49362793 320.36352539 158.59472656 C319.35928024 158.64699402 319.35928024 158.64699402 318.33474731 158.70031738 C293.75213085 160.02313585 269.69257628 163.12015357 246 170 C245.14631836 170.24556641 244.29263672 170.49113281 243.41308594 170.74414062 C218.06600129 178.20553486 189.75259052 189.20692604 169.04296875 205.91796875 C166.27578917 207.38356864 164.97688565 206.82120984 162 206 C160.05664062 204.9152832 160.05664062 204.9152832 158.15625 203.55078125 C157.41955078 203.03926514 156.68285156 202.52774902 155.92382812 202.00073242 C155.12396484 201.44361572 154.32410156 200.88649902 153.5 200.3125 C129.04078779 183.87062738 98.434766 169.58628113 69.28515625 164.49609375 C68.19664871 164.3057103 68.19664871 164.3057103 67.08615112 164.11148071 C58.84665462 162.72835102 50.55956943 161.89434865 42.24414062 161.11962891 C39.63324972 160.87577053 37.02368469 160.62032659 34.4140625 160.36328125 C32.68496164 160.19723002 30.95579674 160.03184401 29.2265625 159.8671875 C28.4811319 159.79426483 27.73570129 159.72134216 26.96768188 159.64620972 C17.98271372 158.81975408 9.03245269 158.47539225 0 158 C0 105.86 0 53.72 0 0 Z " fill="#FBFCFC" transform="translate(238,303)"/>
<path d="M0 0 C7.66247934 4.94651758 12.19381182 11.93896916 14.58984375 20.671875 C14.58984375 21.661875 14.58984375 22.651875 14.58984375 23.671875 C8.97984375 23.671875 3.36984375 23.671875 -2.41015625 23.671875 C-6.41015625 15.921875 -6.41015625 15.921875 -6.41015625 13.671875 C-12.05023638 11.08468228 -17.29969536 11.03260124 -23.41015625 11.671875 C-29.37404091 14.16586313 -31.88697578 18.96204828 -34.41015625 24.671875 C-35.69490888 29.06130354 -35.63200829 33.31699798 -35.66015625 37.859375 C-35.68078125 38.67212891 -35.70140625 39.48488281 -35.72265625 40.32226562 C-35.76857519 47.5372787 -34.66274363 53.95721842 -29.97265625 59.609375 C-25.04764556 63.573408 -21.42285121 64.1179072 -15.171875 63.984375 C-10.89039674 63.49990787 -8.80224288 62.35727692 -5.41015625 59.671875 C-2.98436851 55.8714742 -2.309014 53.16616374 -1.41015625 48.671875 C-6.36015625 48.671875 -11.31015625 48.671875 -16.41015625 48.671875 C-16.41015625 44.051875 -16.41015625 39.431875 -16.41015625 34.671875 C-5.85015625 34.671875 4.70984375 34.671875 15.58984375 34.671875 C15.58984375 49.191875 15.58984375 63.711875 15.58984375 78.671875 C12.61984375 78.671875 9.64984375 78.671875 6.58984375 78.671875 C4.52734375 76.171875 4.52734375 76.171875 3.58984375 73.671875 C0.14700461 74.99085823 0.14700461 74.99085823 -3.11328125 76.6953125 C-11.52851637 81.36676191 -22.24986995 80.9258773 -31.48046875 79.046875 C-39.73316371 76.14937708 -46.32553247 70.33608647 -50.34765625 62.609375 C-55.87878098 50.69465828 -57.07982561 33.85878289 -52.78515625 21.296875 C-51.671875 18.88671875 -51.671875 18.88671875 -50.41015625 16.671875 C-49.96285156 15.86878906 -49.51554687 15.06570313 -49.0546875 14.23828125 C-38.58721083 -2.8520493 -18.12091268 -8.84916998 0 0 Z " fill="#FAFAF8" transform="translate(556.41015625,631.328125)"/>
<path d="M0 0 C3.42985965 2.52000942 6.14703351 5.18874458 8.4296875 8.78515625 C8.99816406 9.66300781 8.99816406 9.66300781 9.578125 10.55859375 C10.4296875 12.78515625 10.4296875 12.78515625 10.4296875 19.78515625 C5.1496875 19.78515625 -0.1303125 19.78515625 -5.5703125 19.78515625 C-6.5603125 17.47515625 -7.5503125 15.16515625 -8.5703125 12.78515625 C-13.21320685 9.43795335 -17.05143618 9.25954898 -22.5703125 9.78515625 C-26.15584131 11.4220281 -27.36346305 12.47488208 -29.5703125 15.78515625 C-30.23711618 18.74236253 -30.23711618 18.74236253 -29.5703125 21.78515625 C-23.61953866 26.8438209 -15.94394094 28.40198778 -8.59960938 30.609375 C-0.50574401 33.15998417 6.45921419 36.2350784 11.9921875 42.84765625 C14.79571178 48.66141627 14.3862712 55.99683141 12.83984375 62.12109375 C9.93399078 68.89695368 4.0984413 74.00576067 -2.4375 77.17578125 C-13.12152838 81.11638393 -22.94003774 80.7267188 -33.5703125 76.78515625 C-39.87813184 73.50994236 -45.03505827 68.12266545 -48.0078125 61.66015625 C-48.5703125 58.78515625 -48.5703125 58.78515625 -48.5703125 52.78515625 C-42.9603125 52.78515625 -37.3503125 52.78515625 -31.5703125 52.78515625 C-30.9103125 55.09515625 -30.2503125 57.40515625 -29.5703125 59.78515625 C-23.71883247 64.5161401 -18.83289595 65.2800512 -11.5703125 64.78515625 C-8.16190121 64.125285 -8.16190121 64.125285 -5.5703125 62.78515625 C-4.37276433 59.19251173 -4.23936292 56.55798151 -4.5703125 52.78515625 C-7.29796686 49.38595173 -9.76355116 48.08517922 -13.89453125 46.85546875 C-14.92384766 46.53449219 -15.95316406 46.21351563 -17.01367188 45.8828125 C-19.15636354 45.240392 -21.29958409 44.59973259 -23.44335938 43.9609375 C-32.16826015 41.235424 -41.0884989 37.63793979 -45.76171875 29.26171875 C-47.81670522 22.96770221 -47.77853051 15.68205323 -45.234375 9.58203125 C-41.74060713 3.70987679 -36.90461823 -1.02628465 -30.4765625 -3.546875 C-20.00980478 -5.95254109 -9.37257966 -5.49113739 0 0 Z " fill="#FAFAF8" transform="translate(294.5703125,632.21484375)"/>
<path d="M0 0 C4.61738043 3.68883957 8.11222829 7.71285275 9.82421875 13.45703125 C9.82421875 15.10703125 9.82421875 16.75703125 9.82421875 18.45703125 C4.54421875 18.45703125 -0.73578125 18.45703125 -6.17578125 18.45703125 C-6.73265625 17.17828125 -7.28953125 15.89953125 -7.86328125 14.58203125 C-9.21045775 11.93445521 -9.88489783 10.65649416 -12.36328125 8.95703125 C-17.5405582 8.03662646 -22.20319172 7.61763145 -27.11328125 9.70703125 C-29.35471228 11.60885152 -30.36870041 12.63224831 -31.17578125 15.45703125 C-31.49872602 18.52199774 -31.49872602 18.52199774 -30.17578125 21.45703125 C-23.47396628 25.33702939 -16.3459037 27.4517655 -8.953125 29.63671875 C-0.6648487 32.24263968 5.79672341 36.21743796 10.82421875 43.45703125 C13.37317039 48.55493453 12.46635216 56.44647355 10.76171875 61.76953125 C6.86834514 70.52052521 -0.9084798 74.39142284 -9.36328125 77.70703125 C-20.18189964 79.83528405 -29.35524967 78.5274144 -39.17578125 73.45703125 C-42.51004656 71.09124473 -44.84129618 68.90702395 -46.92578125 65.39453125 C-47.53679687 64.38712891 -47.53679687 64.38712891 -48.16015625 63.359375 C-50.49578369 58.98456514 -50.17578125 56.86839967 -50.17578125 51.45703125 C-44.89578125 51.45703125 -39.61578125 51.45703125 -34.17578125 51.45703125 C-33.61890625 52.71515625 -33.06203125 53.97328125 -32.48828125 55.26953125 C-30.64070206 58.97779302 -29.06500199 60.7617299 -25.17578125 62.45703125 C-20.3673794 64.05983187 -16.0687547 64.02082651 -11.36328125 62.14453125 C-7.97812429 60.67601594 -7.97812429 60.67601594 -6.17578125 57.45703125 C-5.9626314 54.04663365 -6.09088725 51.71171326 -7.17578125 48.45703125 C-9.74987622 47.3573663 -9.74987622 47.3573663 -13.17578125 46.45703125 C-16.62048543 45.39622802 -20.05392095 44.30077657 -23.48828125 43.20703125 C-24.38740234 42.93246094 -25.28652344 42.65789063 -26.21289062 42.375 C-34.93469856 39.5623273 -42.73973672 35.77461475 -47.17578125 27.45703125 C-49.19156935 21.40966696 -49.29655897 14.03262217 -46.67578125 8.14453125 C-42.90143778 1.78774225 -37.08188243 -3.11766287 -29.92578125 -5.10546875 C-19.00288509 -6.84320223 -9.19938012 -6.52379739 0 0 Z " fill="#FAFAF8" transform="translate(226.17578125,633.54296875)"/>
<path d="M0 0 C7.07483263 4.39642691 12.5297093 10.38239071 14.58984375 18.609375 C14.58984375 20.919375 14.58984375 23.229375 14.58984375 25.609375 C9.30984375 25.609375 4.02984375 25.609375 -1.41015625 25.609375 C-2.13203125 24.041875 -2.85390625 22.474375 -3.59765625 20.859375 C-5.68499518 16.74865459 -7.20617771 13.80690924 -11.41015625 11.609375 C-16.11301674 10.24635785 -20.11493891 10.11365401 -24.66015625 12.046875 C-29.94300424 15.08819585 -32.25077105 19.8227825 -34.5234375 25.28515625 C-35.66415553 29.56159258 -35.74007079 33.51599601 -35.72265625 37.921875 C-35.73876953 38.72560547 -35.75488281 39.52933594 -35.77148438 40.35742188 C-35.77724631 47.51950238 -34.48882655 54.30969805 -29.97265625 60.046875 C-26.14959032 63.86994093 -23.42804516 64.90884434 -18.03515625 64.984375 C-12.9719412 64.84971503 -10.11109505 64.3103138 -6.41015625 60.609375 C-4.48522927 57.34314251 -2.96408757 54.08286853 -1.41015625 50.609375 C3.86984375 50.609375 9.14984375 50.609375 14.58984375 50.609375 C14.58984375 58.86836262 13.02199249 63.67051139 7.60546875 69.88671875 C-0.74040411 77.83305514 -8.86085114 80.24423357 -20.15454102 80.07592773 C-30.2870494 79.63567762 -36.84147415 76.1215055 -44.1484375 69.08984375 C-53.02166796 59.35840792 -56.07563581 47.84624984 -55.6875 34.8359375 C-54.66547991 22.94595727 -50.39254647 13.03642155 -41.66015625 4.734375 C-29.46926886 -4.90223122 -14.11834498 -6.8945553 0 0 Z " fill="#FAFAF8" transform="translate(372.41015625,631.390625)"/>
<path d="M0 0 C5.45489715 4.43908762 9.4912726 9.7628803 11.72265625 16.45703125 C11.72265625 18.76703125 11.72265625 21.07703125 11.72265625 23.45703125 C6.44265625 23.45703125 1.16265625 23.45703125 -4.27734375 23.45703125 C-4.99921875 21.88953125 -5.72109375 20.32203125 -6.46484375 18.70703125 C-8.55218268 14.59631084 -10.07336521 11.65456549 -14.27734375 9.45703125 C-18.98020424 8.0940141 -22.98212641 7.96131026 -27.52734375 9.89453125 C-33.71521642 13.45687229 -36.47043605 19.79207784 -38.27734375 26.45703125 C-38.59987975 29.35771928 -38.65849071 32.22749372 -38.65234375 35.14453125 C-38.65073242 35.93819092 -38.64912109 36.73185059 -38.64746094 37.54956055 C-38.47066725 46.06772316 -36.60716196 54.32501986 -30.27734375 60.45703125 C-25.55865207 63.35212375 -20.63960654 63.04937423 -15.27734375 62.45703125 C-8.7539073 59.79933492 -7.01759333 54.58229502 -4.27734375 48.45703125 C1.00265625 48.45703125 6.28265625 48.45703125 11.72265625 48.45703125 C11.72265625 56.76051255 10.24524824 62.06544185 4.59765625 68.20703125 C-3.96933496 76.18063779 -13.7124703 77.94041109 -24.97265625 77.72265625 C-34.2287326 77.31376938 -40.40151496 73.33871978 -47.01171875 67.01953125 C-56.90687145 55.82777233 -58.15626327 42.9919762 -57.47265625 28.72167969 C-56.63243162 18.97927506 -52.08171534 9.65073998 -44.7265625 3.23046875 C-31.37450317 -6.92669948 -14.75479555 -9.99681688 0 0 Z " fill="#FAFAF8" transform="translate(481.27734375,633.54296875)"/>
<path d="M0 0 C5.61 0 11.22 0 17 0 C17 21.12 17 42.24 17 64 C27.23 64 37.46 64 48 64 C48 69.28 48 74.56 48 80 C32.16 80 16.32 80 0 80 C0 53.6 0 27.2 0 0 Z " fill="#FCFCF9" transform="translate(586,630)"/>
<path d="M0 0 C2.31 0 4.62 0 7 0 C7.86612792 11.35246238 8.11858127 22.61619816 8 34 C9.485 34.495 9.485 34.495 11 35 C12.14558283 38.43674849 12.17607578 41.20416477 12.24609375 44.828125 C12.27904989 46.19922471 12.31226122 47.5703183 12.34570312 48.94140625 C12.39293568 51.0915889 12.43734861 53.24174998 12.47680664 55.39208984 C12.51687568 57.47520002 12.56834646 59.55780241 12.62109375 61.640625 C12.6461499 62.88360352 12.67120605 64.12658203 12.69702148 65.40722656 C13.01389655 69.1647878 13.90312095 72.40154199 15 76 C15.52196005 80.9980137 15.73338211 85.97869644 16 91 C8.08 91 0.16 91 -8 91 C-8 74 -8 74 -5 68 C-4.9381004 65.71045388 -4.94023676 63.41905951 -4.97265625 61.12890625 C-4.98530259 59.73633061 -4.99766354 58.34375235 -5.00976562 56.95117188 C-5.03459215 54.75439329 -5.06257217 52.55774996 -5.09594727 50.36108398 C-5.12614833 48.24201593 -5.14392386 46.12312086 -5.16015625 44.00390625 C-5.17699463 42.73361572 -5.19383301 41.4633252 -5.21118164 40.15454102 C-5 37 -5 37 -3 34 C-2.34 34 -1.68 34 -1 34 C-1.00523682 33.25427734 -1.01047363 32.50855469 -1.01586914 31.74023438 C-1.03679239 28.32683166 -1.04970873 24.91344249 -1.0625 21.5 C-1.07087891 20.32695312 -1.07925781 19.15390625 -1.08789062 17.9453125 C-1.10497844 11.86205118 -0.94502752 6.01245856 0 0 Z " fill="#FBFCFC" transform="translate(532,177)"/>
<path d="M0 0 C2.99601665 0.32462483 3.98090128 0.98023053 6.11328125 3.1875 C6.83902344 4.115625 7.56476563 5.04375 8.3125 6 C9.09496094 6.99644531 9.87742188 7.99289062 10.68359375 9.01953125 C11.44800781 10.00308594 12.21242187 10.98664063 13 12 C13.67160156 12.80824219 14.34320313 13.61648438 15.03515625 14.44921875 C23.16750183 24.34270923 24.18004932 33.87780765 24.0625 46.4375 C24.05798828 47.35982422 24.05347656 48.28214844 24.04882812 49.23242188 C24.03713938 51.48835048 24.02075455 53.74413967 24 56 C14.73755601 51.70710383 5.96255777 41.27377555 2 32 C-1.24650973 22.60875537 -3.23020694 9.69062082 0 0 Z " fill="#FBFCFC" transform="translate(122,313)"/>
<path d="M0 0 C2.475 0.99 2.475 0.99 5 2 C4.86722656 2.67804688 4.73445312 3.35609375 4.59765625 4.0546875 C3.40161223 10.35792677 2.52702465 16.60635885 2 23 C2.66 23.33 3.32 23.66 4 24 C2.68 24 1.36 24 0 24 C-0.14695312 24.62003906 -0.29390625 25.24007813 -0.4453125 25.87890625 C-2.24321575 32.97752424 -4.73985846 39.6770146 -7.53125 46.4296875 C-8.72553128 49.33280741 -9.84079193 52.24718785 -10.9375 55.1875 C-13.65613495 61.96143207 -17.07052793 69.13934103 -22.328125 74.2734375 C-25.91061378 77.92925207 -28.53185376 82.03172383 -31.3125 86.3125 C-31.86228516 87.14845703 -32.41207031 87.98441406 -32.97851562 88.84570312 C-34.32435457 90.89371891 -35.66464405 92.9451401 -37 95 C-38.32 94.34 -39.64 93.68 -41 93 C-37.66883736 87.26409273 -34.33536452 81.53413781 -30.875 75.875 C-27.96318102 71.05327826 -25.43990763 66.07414419 -23 61 C-22.34 61 -21.68 61 -21 61 C-20.76152344 60.20464844 -20.52304687 59.40929687 -20.27734375 58.58984375 C-18.67470428 54.08578971 -16.64335217 49.86203138 -14.5625 45.5625 C-13.03016311 42.38033872 -11.50604211 39.1946979 -10 36 C-9.68530762 35.33468262 -9.37061523 34.66936523 -9.04638672 33.98388672 C-7.53938918 30.66459854 -7 28.73283438 -7 25 C-6.34 24.67 -5.68 24.34 -5 24 C-4.36148267 22.15574892 -4.36148267 22.15574892 -3.96484375 19.921875 C-3.71057617 18.67470703 -3.71057617 18.67470703 -3.45117188 17.40234375 C-3.1969043 16.08943359 -3.1969043 16.08943359 -2.9375 14.75 C-2.67743164 13.46029297 -2.67743164 13.46029297 -2.41210938 12.14453125 C-1.93353517 9.76449557 -1.46531272 7.38265754 -1 5 C-0.66706935 3.33325285 -0.33399547 1.6665341 0 0 Z " fill="#EAEDF0" transform="translate(653,395)"/>
<path d="M0 0 C3.85544798 1.99657127 5.59805092 3.39707638 8 7 C7.9375 9.9375 7.9375 9.9375 7 13 C2.18094609 17.57192294 -1.01130148 18.2878192 -7.453125 18.22265625 C-10.86105274 17.92472392 -13.17734551 16.90529178 -16 15 C-18.34549674 11.48175489 -18.57991403 10.14224306 -18 6 C-12.89016742 -0.21466125 -7.68414276 -0.88433369 0 0 Z " fill="#123A63" transform="translate(409,141)"/>
<path d="M0 0 C0.33 0 0.66 0 1 0 C0.99097656 0.94617188 0.98195312 1.89234375 0.97265625 2.8671875 C1.10821144 12.16698666 2.90719233 19.6172208 6.64868164 28.14599609 C9.08684473 33.73946581 9.08684473 33.73946581 8 37 C2.30684304 31.17610249 -2.75855045 25.27957378 -7.1875 18.4375 C-7.58573975 17.83019043 -7.98397949 17.22288086 -8.39428711 16.59716797 C-9.33242518 15.10635292 -10.17604359 13.55683281 -11 12 C-10.67 11.34 -10.34 10.68 -10 10 C-6.04 15.94 -6.04 15.94 -2 22 C-1.01 21.67 -0.02 21.34 1 21 C0.84402344 20.40574219 0.68804687 19.81148438 0.52734375 19.19921875 C-1.03882833 12.53002242 -0.9514808 6.7632284 0 0 Z " fill="#0E2A55" transform="translate(200,466)"/>
<path d="M0 0 C6.47332252 2.63727954 9.91960033 8.07064408 13.125 14 C13.79384489 15.20856915 14.46310858 16.41690665 15.1328125 17.625 C16.05707031 19.295625 16.05707031 19.295625 17 21 C17.59554687 21.928125 18.19109375 22.85625 18.8046875 23.8125 C19.19914063 24.534375 19.59359375 25.25625 20 26 C19.67 26.66 19.34 27.32 19 28 C18.65710938 27.52691406 18.31421875 27.05382812 17.9609375 26.56640625 C12.45596134 19.61061124 5.50670269 15.4977747 -2 11 C-1.34 10.67 -0.68 10.34 0 10 C2.03144641 10.93446535 4.03533587 11.93224776 6 13 C7.13210475 10.86920862 7.13210475 10.86920862 7 8 C5.34081052 5.93687172 3.53302536 4.22346705 1.56640625 2.453125 C1.04949219 1.97359375 0.53257812 1.4940625 0 1 C0 0.67 0 0.34 0 0 Z " fill="#0E305A" transform="translate(618,232)"/>
<path d="M0 0 C2.475 0.99 2.475 0.99 5 2 C4.86722656 2.67804688 4.73445312 3.35609375 4.59765625 4.0546875 C3.40161223 10.35792677 2.52702465 16.60635885 2 23 C2.66 23.33 3.32 23.66 4 24 C2.68 24 1.36 24 0 24 C0 22.35 0 20.7 0 19 C-0.99 18.67 -1.98 18.34 -3 18 C-2.41509121 11.85845775 -1.45933748 5.99320151 0 0 Z " fill="#DDE2E7" transform="translate(653,395)"/>
<path d="M0 0 C7.25669367 1.67462162 12.92904464 6.73586539 18 12 C18 9.69 18 7.38 18 5 C20.99322096 7.99322096 21.47280985 11.54325709 22.5625 15.5625 C22.78357422 16.33658203 23.00464844 17.11066406 23.23242188 17.90820312 C24.71085482 23.27254745 25.50720725 28.45746585 26 34 C23.75898387 31.75898387 23.30442216 29.93904589 22.45458984 26.94726562 C18.98575573 14.91885684 12.94498495 8.66336073 2.125 2.3125 C1.42375 1.879375 0.7225 1.44625 0 1 C0 0.67 0 0.34 0 0 Z " fill="#152B54" transform="translate(629,281)"/>
<path d="M0 0 C5.24689377 1.62222803 10.18397785 3.75998035 15.1875 6 C15.99380859 6.35578125 16.80011719 6.7115625 17.63085938 7.078125 C18.79391602 7.59632813 18.79391602 7.59632813 19.98046875 8.125 C20.68067139 8.43695312 21.38087402 8.74890625 22.10229492 9.0703125 C24 10 24 10 27 12 C23.61319222 11.52226389 20.22961795 11.03646538 16.8515625 10.5 C7.57769993 9.06288813 -1.63252208 8.43094935 -11 8 C-11 7.67 -11 7.34 -11 7 C-6.71702469 5.94380997 -2.57014354 5.88297908 1.8125 5.9375 C2.50537109 5.94201172 3.19824219 5.94652344 3.91210938 5.95117188 C5.60811068 5.96286844 7.30406703 5.98080076 9 6 C4.545 3.525 4.545 3.525 0 1 C0 0.67 0 0.34 0 0 Z " fill="#0A2754" transform="translate(266,554)"/>
<path d="M0 0 C0.33 0 0.66 0 1 0 C0.41117785 9.27394893 -1.75886856 18.0146265 -4 27 C-5.71948485 24.03051422 -6.22039127 22.08547775 -5.9765625 18.671875 C-5.925 17.87265625 -5.8734375 17.0734375 -5.8203125 16.25 C-5.75585938 15.425 -5.69140625 14.6 -5.625 13.75 C-5.56828125 12.90953125 -5.5115625 12.0690625 -5.453125 11.203125 C-5.31209668 9.13470958 -5.15738212 7.0672354 -5 5 C-3.35 4.67 -1.7 4.34 0 4 C0 2.68 0 1.36 0 0 Z " fill="#0B315B" transform="translate(653,390)"/>
<path d="M0 0 C0.33 0 0.66 0 1 0 C0.94199219 1.12535156 0.88398437 2.25070313 0.82421875 3.41015625 C0.48087968 13.24321494 1.38776559 20.98360053 5.00390625 30.15625 C5.33261719 31.0946875 5.66132812 32.033125 6 33 C5.67 33.66 5.34 34.32 5 35 C3.13284182 31.88258808 1.28354339 28.7549542 -0.5625 25.625 C-1.09552734 24.73554688 -1.62855469 23.84609375 -2.17773438 22.9296875 C-2.67724609 22.07890625 -3.17675781 21.228125 -3.69140625 20.3515625 C-4.15748291 19.56604004 -4.62355957 18.78051758 -5.10375977 17.97119141 C-5.39951904 17.32069824 -5.69527832 16.67020508 -6 16 C-5.67 15.34 -5.34 14.68 -5 14 C-4.67 14.99 -4.34 15.98 -4 17 C-3.34 17 -2.68 17 -2 17 C-1.34 11.39 -0.68 5.78 0 0 Z " fill="#0D2854" transform="translate(638,229)"/>
<path d="M0 0 C1.33333333 2.66666667 2.66666667 5.33333333 4 8 C0.37 11.96 -3.26 15.92 -7 20 C-8 18 -8 18 -7.48681641 16.22827148 C-7.19468262 15.53290283 -6.90254883 14.83753418 -6.6015625 14.12109375 C-6.28703125 13.36505859 -5.9725 12.60902344 -5.6484375 11.83007812 C-5.14183594 10.64575195 -5.14183594 10.64575195 -4.625 9.4375 C-4.295 8.64408203 -3.965 7.85066406 -3.625 7.03320312 C-1.15543308 1.15543308 -1.15543308 1.15543308 0 0 Z " fill="#14375F" transform="translate(606,484)"/>
<path d="M0 0 C3.05160609 1.37263363 5.24826932 2.95956573 7.671875 5.2578125 C8.33574219 5.88300781 8.99960938 6.50820313 9.68359375 7.15234375 C10.36550781 7.80332031 11.04742187 8.45429687 11.75 9.125 C12.44738281 9.78371094 13.14476562 10.44242188 13.86328125 11.12109375 C15.57950489 12.74327774 17.29153435 14.36965379 19 16 C17 17 17 17 14.1015625 16.07421875 C12.38066406 15.38779297 12.38066406 15.38779297 10.625 14.6875 C9.48289063 14.23761719 8.34078125 13.78773438 7.1640625 13.32421875 C4.71339649 12.29856964 2.35025532 11.23301572 0 10 C1.98 9.67 3.96 9.34 6 9 C4.16172132 5.84866512 2.24027294 2.88035092 0 0 Z " fill="#0E2B54" transform="translate(217,518)"/>
<path d="M0 0 C0.33 0 0.66 0 1 0 C1.66 3.3 2.32 6.6 3 10 C3.66 10 4.32 10 5 10 C4.42334609 14.7871428 2.35917004 18.25128824 -0.0625 22.3125 C-0.62807617 23.28026367 -0.62807617 23.28026367 -1.20507812 24.26757812 C-2.13037493 25.84878152 -3.06432681 27.4249146 -4 29 C-5 27 -5 27 -4.2578125 24.453125 C-3.88398438 23.39609375 -3.51015625 22.3390625 -3.125 21.25 C-0.80691515 14.09591054 -0.22491436 7.50089398 0 0 Z " fill="#102F5A" transform="translate(170,233)"/>
<path d="M0 0 C0.66 0.33 1.32 0.66 2 1 C0.61508424 5.71445416 -1.42456083 9.74619412 -3.9375 13.9375 C-6.67198733 18.5186541 -8.98503229 23.05417017 -11 28 C-11.33 27.34 -11.66 26.68 -12 26 C-11.67 25.01 -11.34 24.02 -11 23 C-11.66 22.67 -12.32 22.34 -13 22 C-12.09507812 20.49759766 -12.09507812 20.49759766 -11.171875 18.96484375 C-10.36454321 17.62241996 -9.55725381 16.27997068 -8.75 14.9375 C-8.35425781 14.28072266 -7.95851562 13.62394531 -7.55078125 12.94726562 C-4.97597205 8.66295196 -2.46533598 4.3482646 0 0 Z " fill="#E9EDF0" transform="translate(181,235)"/>
<path d="M0 0 C0.66 0.33 1.32 0.66 2 1 C-2.37500133 6.3407596 -6.35486177 10.72271669 -12.53125 13.9296875 C-13.0159375 14.28289063 -13.500625 14.63609375 -14 15 C-14 15.99 -14 16.98 -14 18 C-15.45264038 18.8638129 -16.9123163 19.71580454 -18.375 20.5625 C-19.18710937 21.03816406 -19.99921875 21.51382813 -20.8359375 22.00390625 C-21.55007813 22.33261719 -22.26421875 22.66132812 -23 23 C-23.66 22.67 -24.32 22.34 -25 22 C-16.86369114 14.42077174 -8.53989253 7.12116845 0 0 Z " fill="#132D57" transform="translate(594,514)"/>
<path d="M0 0 C0.99 0.33 1.98 0.66 3 1 C2.4225 1.886875 1.845 2.77375 1.25 3.6875 C-1.3607354 8.18940416 -2.60545891 13.01822119 -3.97265625 18.01171875 C-4.95932025 20.88167296 -6.03790275 22.7155185 -8 25 C-7.39700836 17.76410027 -5.8849413 11.00629124 -4 4 C-2.68 3.67 -1.36 3.34 0 3 C0 2.01 0 1.02 0 0 Z " fill="#1F385F" transform="translate(162,291)"/>
<path d="M0 0 C0.79792969 0.00386719 1.59585937 0.00773438 2.41796875 0.01171875 C3.21589844 0.00785156 4.01382812 0.00398437 4.8359375 0 C10.79136108 0.01011108 10.79136108 0.01011108 11.91796875 1.13671875 C11.88016802 2.78541192 11.76326573 4.43265907 11.60546875 6.07421875 C11.48751953 7.41806641 11.48751953 7.41806641 11.3671875 8.7890625 C10.91796875 11.13671875 10.91796875 11.13671875 8.91796875 13.13671875 C9.24796875 9.50671875 9.57796875 5.87671875 9.91796875 2.13671875 C4.63796875 2.13671875 -0.64203125 2.13671875 -6.08203125 2.13671875 C-6.41203125 3.78671875 -6.74203125 5.43671875 -7.08203125 7.13671875 C-8.64453125 8.94921875 -8.64453125 8.94921875 -10.08203125 10.13671875 C-9.60652564 8.65637111 -9.12651909 7.17746854 -8.64453125 5.69921875 C-8.37769531 4.87550781 -8.11085938 4.05179688 -7.8359375 3.203125 C-6.33553646 -0.90937319 -4.06343501 0.00689887 0 0 Z " fill="#0A2D5A" transform="translate(377.08203125,679.86328125)"/>
<path d="M0 0 C0.66 0 1.32 0 2 0 C3.5078125 2.1875 3.5078125 2.1875 5.125 5 C5.66382813 5.928125 6.20265625 6.85625 6.7578125 7.8125 C7.37269531 8.8953125 7.37269531 8.8953125 8 10 C8.33 7.69 8.66 5.38 9 3 C9.33 3 9.66 3 10 3 C10.86809439 8.20173095 11.12515348 13.16978816 11.0625 18.4375 C11.05798828 19.16904297 11.05347656 19.90058594 11.04882812 20.65429688 C11.03718148 22.43623419 11.01925191 24.21812863 11 26 C9.19236708 22.71122293 8.20002481 19.41881177 7.1875 15.8125 C5.46197481 10.04338558 3.20552963 5.08418019 0 0 Z " fill="#0F2650" transform="translate(647,333)"/>
<path d="M0 0 C2.09960938 1.85546875 2.09960938 1.85546875 4.19921875 3.7109375 C6.35367899 5.25317585 8.53472085 6.03596547 11 7 C12.74896886 7.96494834 14.4785458 8.9658371 16.1875 10 C17.04730469 10.515625 17.90710938 11.03125 18.79296875 11.5625 C21 13 21 13 23 15 C19.47944083 14.40915596 16.56638778 13.4844458 13.35546875 11.93359375 C12.51435547 11.53076172 11.67324219 11.12792969 10.80664062 10.71289062 C9.51016602 10.08157227 9.51016602 10.08157227 8.1875 9.4375 C6.86202148 8.80038086 6.86202148 8.80038086 5.50976562 8.15039062 C3.33735663 7.10528576 1.16760043 6.05503238 -1 5 C-0.67 3.35 -0.34 1.7 0 0 Z " fill="#25385C" transform="translate(278,549)"/>
<path d="M0 0 C0.66 0 1.32 0 2 0 C6.29 7.59 10.58 15.18 15 23 C14.34 23.33 13.68 23.66 13 24 C12.67 24.66 12.34 25.32 12 26 C11.2575 24.2365625 11.2575 24.2365625 10.5 22.4375 C8.16983786 17.15242209 5.4299436 12.10869403 2.64257812 7.05444336 C0 2.20950865 0 2.20950865 0 0 Z " fill="#DCE1E6" transform="translate(627,238)"/>
<path d="M0 0 C0 3 0 3 -1 5 C-0.3709375 4.72285156 0.258125 4.44570313 0.90625 4.16015625 C6.36410208 1.85043271 11.08810648 0.43791804 17 0 C14.00642944 1.99571371 11.73588446 2.75059967 8.3125 3.75 C2.57085406 5.60371157 -1.45112252 8.12311578 -6 12 C-7.32770234 13.00746428 -8.65964535 14.00943088 -10 15 C-8.37815499 11.41486894 -6.20743761 8.41007677 -3.875 5.25 C-3.15054688 4.26515625 -2.42609375 3.2803125 -1.6796875 2.265625 C-1.12539063 1.51796875 -0.57109375 0.7703125 0 0 Z " fill="#0D2651" transform="translate(621,482)"/>
<path d="M0 0 C0.66 0.33 1.32 0.66 2 1 C-0.31 2.32 -2.62 3.64 -5 5 C0.28 5 5.56 5 11 5 C11 5.33 11 5.66 11 6 C8.1875 6.3125 5.375 6.625 2.5625 6.9375 C1.3878418 7.06801758 1.3878418 7.06801758 0.18945312 7.20117188 C-5.20703125 7.80078125 -10.60351562 8.40039062 -16 9 C-12.82117052 6.45079375 -9.50731355 4.58846828 -5.875 2.75 C-4.82054687 2.20859375 -3.76609375 1.6671875 -2.6796875 1.109375 C-1.79539062 0.74328125 -0.91109375 0.3771875 0 0 Z " fill="#0E234E" transform="translate(538,555)"/>
<path d="M0 0 C0.33 0 0.66 0 1 0 C0.67 7.92 0.34 15.84 0 24 C-3.89839291 18.15241063 -4.29973431 10.89388918 -4 4 C-3.67 5.32 -3.34 6.64 -3 8 C-2.34 8 -1.68 8 -1 8 C-0.67 5.36 -0.34 2.72 0 0 Z " fill="#08204C" transform="translate(160,390)"/>
<path d="M0 0 C0 0.99 0 1.98 0 3 C-0.66 3.66 -1.32 4.32 -2 5 C-2 5.99 -2 6.98 -2 8 C-4.09836004 9.03271642 -6.20390891 10.05083717 -8.3125 11.0625 C-9.48425781 11.63097656 -10.65601563 12.19945312 -11.86328125 12.78515625 C-15 14 -15 14 -18 13 C-17.28714844 12.56429687 -16.57429688 12.12859375 -15.83984375 11.6796875 C-10.14263272 8.13714175 -4.95953879 4.5186909 0 0 Z " fill="#112851" transform="translate(528,549)"/>
<path d="M0 0 C5.96163242 3.124817 11.33158765 6.59558643 16.640625 10.7421875 C18.94170443 12.24665307 18.94170443 12.24665307 21.609375 11.7578125 C23.41101787 11.18670349 25.20699295 10.59766902 27 10 C26.3125 11.9375 26.3125 11.9375 25 14 C21.98929929 15.05218037 20.54952367 15.23962469 17.59643555 13.9519043 C16.37887573 13.14619995 16.37887573 13.14619995 15.13671875 12.32421875 C14.25048828 11.74349609 13.36425781 11.16277344 12.45117188 10.56445312 C11.53916016 9.94505859 10.62714844 9.32566406 9.6875 8.6875 C8.75615234 8.07970703 7.82480469 7.47191406 6.86523438 6.84570312 C1.85379557 3.51575807 1.85379557 3.51575807 0 2 C0 1.34 0 0.68 0 0 Z " fill="#0E2A55" transform="translate(382,497)"/>
<path d="M0 0 C0.66 0.66 1.32 1.32 2 2 C2.66 1.67 3.32 1.34 4 1 C3.5875 2.216875 3.175 3.43375 2.75 4.6875 C0.72341064 10.75757149 -1.13608633 16.87841551 -3 23 C-3.8950292 20.06387762 -4.0294562 17.97288496 -3.4765625 14.9609375 C-3.3425 14.21585937 -3.2084375 13.47078125 -3.0703125 12.703125 C-2.84988281 11.55070312 -2.84988281 11.55070312 -2.625 10.375 C-2.41617188 9.21097656 -2.41617188 9.21097656 -2.203125 8.0234375 C-1.1497682 2.2995364 -1.1497682 2.2995364 0 0 Z " fill="#172B52" transform="translate(659,389)"/>
<path d="M0 0 C0.33 0 0.66 0 1 0 C2.33333333 8 3.66666667 16 5 24 C2.045111 20.4541332 -0.45934985 16.36218967 -2 12 C-1.67 11.01 -1.34 10.02 -1 9 C-0.67 9 -0.34 9 0 9 C0 6.03 0 3.06 0 0 Z " fill="#0E2651" transform="translate(174,436)"/>
<path d="M0 0 C1.97625073 2.9643761 3.29886906 5.78787746 4.6875 9.0625 C5.14511719 10.12597656 5.60273438 11.18945312 6.07421875 12.28515625 C6.37972656 13.18105469 6.68523437 14.07695312 7 15 C6.67 15.66 6.34 16.32 6 17 C3.06799526 14.14723863 0.35684596 11.34920216 -2 8 C-1.67 7.67 -1.34 7.34 -1 7 C-0.63239269 4.67182036 -0.29758419 2.3381615 0 0 Z " fill="#1B3E65" transform="translate(159,431)"/>
<path d="M0 0 C1.85953078 3.25808543 2.53823806 6.24462525 3.125 9.9375 C3.29257813 10.95714844 3.46015625 11.97679687 3.6328125 13.02734375 C3.96614565 15.72592382 4.06998996 18.28538935 4 21 C1.75773557 17.63660335 0.57407253 14.23659448 -0.6875 10.4375 C-0.92533203 9.75236328 -1.16316406 9.06722656 -1.40820312 8.36132812 C-1.99980093 6.59347428 -2.5063209 4.79765851 -3 3 C-2.67 2.34 -2.34 1.68 -2 1 C-1.67 1.33 -1.34 1.66 -1 2 C-0.67 1.34 -0.34 0.68 0 0 Z " fill="#152B52" transform="translate(149,390)"/>
<path d="M0 0 C0.33 0 0.66 0 1 0 C1.33 2.97 1.66 5.94 2 9 C1.34 9 0.68 9 0 9 C0 9.66 0 10.32 0 11 C-0.66 11 -1.32 11 -2 11 C-2.33 11.66 -2.66 12.32 -3 13 C-3.33 9.7 -3.66 6.4 -4 3 C-2.68 2.67 -1.36 2.34 0 2 C0 1.34 0 0.68 0 0 Z " fill="#E9EEF0" transform="translate(154,389)"/>
<path d="M0 0 C7.48291572 6.15034169 7.48291572 6.15034169 10 10 C7.11562221 8.70700306 5.12780579 7.34058637 3 5 C2.67 5.99 2.34 6.98 2 8 C-0.02045442 7.39816251 -2.02111039 6.72693904 -4 6 C-4.33 5.34 -4.66 4.68 -5 4 C-3.35 4 -1.7 4 0 4 C0 2.68 0 1.36 0 0 Z " fill="#092853" transform="translate(276,545)"/>
<path d="M0 0 C4.84688192 0.78175515 9.3766367 2.39844278 14 4 C14 4.33 14 4.66 14 5 C7.4 5.33 0.8 5.66 -6 6 C-2.55549263 3.70366176 -0.06187717 3.45983515 4 3 C2.68 2.34 1.36 1.68 0 1 C0 0.67 0 0.34 0 0 Z " fill="#061A47" transform="translate(320,576)"/>
<path d="M0 0 C1 3 1 3 0 6 C-0.22451458 8.22574335 -0.40782878 10.45581519 -0.5625 12.6875 C-0.64628906 13.86699219 -0.73007812 15.04648437 -0.81640625 16.26171875 C-0.87699219 17.16535156 -0.93757812 18.06898438 -1 19 C-2.72357119 16.41464321 -3.44735018 14.96188386 -4.1875 12.0625 C-4.36667969 11.39347656 -4.54585937 10.72445313 -4.73046875 10.03515625 C-5.03268678 7.75319112 -4.68756692 6.17973341 -4 4 C-3.67 4.66 -3.34 5.32 -3 6 C-2.01 4.02 -1.02 2.04 0 0 Z " fill="#0A1F4B" transform="translate(658,282)"/>
<path d="M0 0 C0.33 0 0.66 0 1 0 C1 7.59 1 15.18 1 23 C0.67 23 0.34 23 0 23 C-0.3925703 19.54342293 -0.76105763 16.08469904 -1.125 12.625 C-1.23714844 11.64015625 -1.34929687 10.6553125 -1.46484375 9.640625 C-1.56152344 8.69960938 -1.65820312 7.75859375 -1.7578125 6.7890625 C-1.8520752 5.91975098 -1.94633789 5.05043945 -2.04345703 4.15478516 C-2 2 -2 2 0 0 Z " fill="#06163D" transform="translate(146,336)"/>
<path d="M0 0 C0.74636719 0.0825 1.49273438 0.165 2.26171875 0.25 C2.26171875 0.91 2.26171875 1.57 2.26171875 2.25 C0.07421875 3.9765625 0.07421875 3.9765625 -2.73828125 5.875 C-3.66640625 6.50664063 -4.59453125 7.13828125 -5.55078125 7.7890625 C-6.27265625 8.27117188 -6.99453125 8.75328125 -7.73828125 9.25 C-8.39828125 8.92 -9.05828125 8.59 -9.73828125 8.25 C-8.69428379 6.90213008 -7.62726059 5.57207271 -6.55078125 4.25 C-5.95910156 3.5075 -5.36742187 2.765 -4.7578125 2 C-2.73828125 0.25 -2.73828125 0.25 0 0 Z " fill="#142F57" transform="translate(570.73828125,525.75)"/>
<path d="M0 0 C0.66 0 1.32 0 2 0 C2.33 0.66 2.66 1.32 3 2 C3.99 2.66 4.98 3.32 6 4 C0.58461538 8.06153846 0.58461538 8.06153846 -2.375 7.75 C-2.91125 7.5025 -3.4475 7.255 -4 7 C-3.525625 6.5875 -3.05125 6.175 -2.5625 5.75 C-0.83733482 3.817815 -0.43415125 2.51807725 0 0 Z " fill="#11335D" transform="translate(529,547)"/>
<path d="M0 0 C2.81158409 2.49824489 4.44837831 5.278476 6.25 8.5625 C6.79140625 9.53316406 7.3328125 10.50382813 7.890625 11.50390625 C8.25671875 12.32761719 8.6228125 13.15132813 9 14 C8.67 14.66 8.34 15.32 8 16 C5.36 13.03 2.72 10.06 0 7 C0.66 6.67 1.32 6.34 2 6 C1.34 4.02 0.68 2.04 0 0 Z " fill="#0E2750" transform="translate(629,244)"/>
<path d="M0 0 C0.33 0.66 0.66 1.32 1 2 C0.67 2.99 0.34 3.98 0 5 C0.66 5.33 1.32 5.66 2 6 C1.071875 6.763125 0.14375 7.52625 -0.8125 8.3125 C-2.98276101 10.11848552 -5.05568065 11.9476629 -7 14 C-5.53967505 8.68972746 -3.01679014 4.53669968 0 0 Z " fill="#102750" transform="translate(179,244)"/>
<path d="M0 0 C0.99 0.495 0.99 0.495 2 1 C2 1.66 2 2.32 2 3 C4.97 3 7.94 3 11 3 C11 3.99 11 4.98 11 6 C5.67988107 6.34886026 5.67988107 6.34886026 3 6 C1 4.125 1 4.125 0 2 C0 1.34 0 0.68 0 0 Z " fill="#28456A" transform="translate(561,707)"/>
<path d="M0 0 C-2.07914664 0.70005949 -4.16351586 1.38462244 -6.25 2.0625 C-7.41015625 2.44535156 -8.5703125 2.82820313 -9.765625 3.22265625 C-12.80077085 3.95211763 -14.15703213 4.11889082 -17 3 C-16.34 3 -15.68 3 -15 3 C-15 2.34 -15 1.68 -15 1 C-13.25215171 0.63536268 -11.50159498 0.2836922 -9.75 -0.0625 C-8.28820312 -0.35833984 -8.28820312 -0.35833984 -6.796875 -0.66015625 C-4.131881 -0.98397535 -2.51128277 -0.85503199 0 0 Z " fill="#0D2956" transform="translate(498,454)"/>
<path d="M0 0 C0.75539063 0.28359375 1.51078125 0.5671875 2.2890625 0.859375 C3.07925781 1.14941406 3.86945313 1.43945312 4.68359375 1.73828125 C5.41964844 2.02574219 6.15570313 2.31320312 6.9140625 2.609375 C7.9246875 3.00125 8.9353125 3.393125 9.9765625 3.796875 C10.6159375 4.065 11.2553125 4.333125 11.9140625 4.609375 C8.0421108 5.90002557 5.47173649 4.83261598 1.7265625 3.671875 C0.74526367 3.37893555 0.74526367 3.37893555 -0.25585938 3.08007812 C-1.86821157 2.59754937 -3.47740039 2.10447295 -5.0859375 1.609375 C-2.0859375 -0.390625 -2.0859375 -0.390625 0 0 Z " fill="#2A3F60" transform="translate(334.0859375,571.390625)"/>
<path d="M0 0 C1.61363928 3.22727857 0.08456242 5.68923051 -1 9 C-2.35619066 12.3452703 -2.84911939 12.89941293 -6 15 C-3.10933941 4.44191344 -3.10933941 4.44191344 0 0 Z " fill="#132954" transform="translate(604,489)"/>
<path d="M0 0 C0.33 0 0.66 0 1 0 C1 3.63 1 7.26 1 11 C0.01 11.33 -0.98 11.66 -2 12 C-2.99 11.01 -3.98 10.02 -5 9 C-4.67 8.01 -4.34 7.02 -4 6 C-2.68 6 -1.36 6 0 6 C0 4.02 0 2.04 0 0 Z " fill="#0F305B" transform="translate(147,328)"/>
<path d="M0 0 C0.99 0 1.98 0 3 0 C4.45606519 4.52092968 3.27032841 7.51648796 2 12 C-0.60018816 8.09971775 -0.15085514 4.52565431 0 0 Z " fill="#143058" transform="translate(647,405)"/>
<path d="M0 0 C0.66 0.33 1.32 0.66 2 1 C1.01 1.33 0.02 1.66 -1 2 C-1 2.99 -1 3.98 -1 5 C-4.63 5.66 -8.26 6.32 -12 7 C-9.79812328 4.79812328 -7.77114318 3.71821071 -5 2.3125 C-4.113125 1.85488281 -3.22625 1.39726563 -2.3125 0.92578125 C-1.549375 0.62027344 -0.78625 0.31476562 0 0 Z " fill="#0C224A" transform="translate(478,569)"/>
<path d="M0 0 C0.66 0 1.32 0 2 0 C2.66 0.66 3.32 1.32 4 2 C4.33 1.34 4.66 0.68 5 0 C6.5625 2.8125 6.5625 2.8125 8 6 C7.67 6.99 7.34 7.98 7 9 C5.83037314 7.69013727 4.66437056 6.3770374 3.5 5.0625 C2.8503125 4.33160156 2.200625 3.60070312 1.53125 2.84765625 C0 1 0 1 0 0 Z " fill="#122850" transform="translate(201,494)"/>
<path d="M0 0 C2.04119788 1.61594832 4.04072937 3.2856382 6 5 C6 5.66 6 6.32 6 7 C1.25 6.25 1.25 6.25 -1 4 C-0.625 1.875 -0.625 1.875 0 0 Z " fill="#163B64" transform="translate(278,549)"/>
<path d="M0 0 C4.875 4.625 4.875 4.625 6 8 C1.58110387 6.64978174 -0.34345343 4.73884332 -3 1 C-2.01 0.67 -1.02 0.34 0 0 Z " fill="#132952" transform="translate(238,525)"/>
<path d="M0 0 C0.99 0 1.98 0 3 0 C3.33 2.31 3.66 4.62 4 7 C2.66666667 7 1.33333333 7 0 7 C0 4.69 0 2.38 0 0 Z " fill="#F1F3F5" transform="translate(654,390)"/>
<path d="M0 0 C1.485 0.99 1.485 0.99 3 2 C3.29296875 4.3828125 3.29296875 4.3828125 3.1875 7.125 C3.16042969 8.03507812 3.13335938 8.94515625 3.10546875 9.8828125 C3.07066406 10.58148438 3.03585937 11.28015625 3 12 C2.34 12 1.68 12 1 12 C0.03929566 9.11788698 -0.10581883 7.30149956 -0.0625 4.3125 C-0.05347656 3.50425781 -0.04445313 2.69601562 -0.03515625 1.86328125 C-0.02355469 1.24839844 -0.01195312 0.63351562 0 0 Z " fill="#22456D" transform="translate(793,371)"/>
<path d="M0 0 C0.66 0 1.32 0 2 0 C2.86916887 1.40751221 3.71985149 2.8264521 4.5625 4.25 C5.03816406 5.03890625 5.51382813 5.8278125 6.00390625 6.640625 C7.13022151 9.30844625 7.0169313 10.34501768 6 13 C4.99491199 11.21118264 3.99607264 9.41885304 3 7.625 C2.1646875 6.12839844 2.1646875 6.12839844 1.3125 4.6015625 C0 2 0 2 0 0 Z " fill="#E2E8EC" transform="translate(627,238)"/>
<path d="M0 0 C0.33 0 0.66 0 1 0 C1 2.31 1 4.62 1 7 C1.66 7 2.32 7 3 7 C3.33 6.34 3.66 5.68 4 5 C3.67 7.64 3.34 10.28 3 13 C2.01 12.34 1.02 11.68 0 11 C-0.29296875 8.3984375 -0.29296875 8.3984375 -0.1875 5.375 C-0.16042969 4.37210937 -0.13335938 3.36921875 -0.10546875 2.3359375 C-0.07066406 1.56507813 -0.03585937 0.79421875 0 0 Z " fill="#041C4A" transform="translate(648,395)"/>
<path d="M0 0 C0.33 0 0.66 0 1 0 C1.33 3.3 1.66 6.6 2 10 C1.01 10.33 0.02 10.66 -1 11 C-1.66 10.67 -2.32 10.34 -3 10 C-3 9.01 -3 8.02 -3 7 C-2.34 7 -1.68 7 -1 7 C-0.67 4.69 -0.34 2.38 0 0 Z " fill="#E9ECEE" transform="translate(152,374)"/>
<path d="M0 0 C0.99 0.33 1.98 0.66 3 1 C0.525 5.455 0.525 5.455 -2 10 C-2.66 9.34 -3.32 8.68 -4 8 C-4 6.68 -4 5.36 -4 4 C-2.68 3.67 -1.36 3.34 0 3 C0 2.01 0 1.02 0 0 Z " fill="#0E2A55" transform="translate(162,291)"/>
<path d="M0 0 C9.41002278 -0.18451025 9.41002278 -0.18451025 14 1 C14 1.33 14 1.66 14 2 C9.94153944 2.98386923 6.17153059 3.3148325 2 3 C1.34 2.01 0.68 1.02 0 0 Z " fill="#1A456B" transform="translate(372,796)"/>
<path d="M0 0 C0.33 0.66 0.66 1.32 1 2 C-2 5 -5 8 -8 11 C-8.66 10.67 -9.32 10.34 -10 10 C-6.7 6.7 -3.4 3.4 0 0 Z " fill="#05204F" transform="translate(650,491)"/>
<path d="M0 0 C0.99 0.33 1.98 0.66 3 1 C2.6875 3.375 2.6875 3.375 2 6 C1.01 6.66 0.02 7.32 -1 8 C-2.2077558 4.37673261 -1.54311128 3.35853631 0 0 Z " fill="#194067" transform="translate(604,491)"/>
<path d="M0 0 C1.39195915 4.17587745 -0.17676781 6.13474776 -2 10 C-2.33 9.34 -2.66 8.68 -3 8 C-2.67 7.01 -2.34 6.02 -2 5 C-2.66 4.67 -3.32 4.34 -4 4 C-2.68 2.68 -1.36 1.36 0 0 Z " fill="#CAD1D9" transform="translate(172,253)"/>
<path d="M0 0 C1.43931117 0.45261358 2.87638999 0.91232979 4.3125 1.375 C5.11300781 1.63023437 5.91351563 1.88546875 6.73828125 2.1484375 C9 3 9 3 12 5 C7.33333333 4.33333333 2.66666667 3.66666667 -2 3 C-1.34 2.67 -0.68 2.34 0 2 C0 1.34 0 0.68 0 0 Z " fill="#2F4264" transform="translate(281,561)"/>
<path d="M0 0 C0.33 0.66 0.66 1.32 1 2 C-5.0546875 2.9765625 -5.0546875 2.9765625 -7 3 C-7.66 2.34 -8.32 1.68 -9 1 C-6.04335481 -0.4783226 -3.25770263 -0.06032783 0 0 Z " fill="#163561" transform="translate(246,547)"/>
<path d="M0 0 C3.42931954 3.7559214 4.56429083 8.23466745 6 13 C2.50586395 10.13301658 0.71163126 8.15849852 0.1875 3.6875 C0.125625 2.470625 0.06375 1.25375 0 0 Z " fill="#182D55" transform="translate(160,435)"/>
<path d="M0 0 C0.33 0.99 0.66 1.98 1 3 C1.66 3.33 2.32 3.66 3 4 C1.68 5.65 0.36 7.3 -1 9 C-1.33 6.36 -1.66 3.72 -2 1 C-1.34 0.67 -0.68 0.34 0 0 Z " fill="#1C466D" transform="translate(661,384)"/>
<path d="M0 0 C1.32 0.66 2.64 1.32 4 2 C0.535 4.97 0.535 4.97 -3 8 C-1.125 1.125 -1.125 1.125 0 0 Z " fill="#142A53" transform="translate(646,439)"/>
<path d="M0 0 C0.99 0 1.98 0 3 0 C4.125 5.75 4.125 5.75 3 8 C0 3.375 0 3.375 0 0 Z " fill="#183F68" transform="translate(202,490)"/>
<path d="M0 0 C-0.66 0 -1.32 0 -2 0 C-2 0.66 -2 1.32 -2 2 C-4.64 2 -7.28 2 -10 2 C-9.67 1.34 -9.34 0.68 -9 0 C-5.65506316 -0.99444068 -3.31044803 -1.10348268 0 0 Z " fill="#102D58" transform="translate(640,467)"/>
<path d="M0 0 C0.66 0.33 1.32 0.66 2 1 C2.6328125 3.06640625 2.6328125 3.06640625 3.125 5.5625 C3.29257812 6.38878906 3.46015625 7.21507812 3.6328125 8.06640625 C3.75398437 8.70449219 3.87515625 9.34257812 4 10 C1.37169256 7.52332568 0.07416551 5.49103792 -1 2 C-0.67 1.34 -0.34 0.68 0 0 Z " fill="#15284E" transform="translate(640,254)"/>
<path d="M0 0 C3.25543229 0.34879632 4.01873107 1.02133261 6.25 3.5625 C6.8275 4.366875 7.405 5.17125 8 6 C7.67 6.66 7.34 7.32 7 8 C5.83035398 6.8572081 4.66435444 5.71068285 3.5 4.5625 C2.8503125 3.92441406 2.200625 3.28632813 1.53125 2.62890625 C0 1 0 1 0 0 Z " fill="#0B1D48" transform="translate(190,490)"/>
<path d="M0 0 C0.33 0 0.66 0 1 0 C0.67 3.3 0.34 6.6 0 10 C-1.32 9.01 -2.64 8.02 -4 7 C-4 6.34 -4 5.68 -4 5 C-2.68 5 -1.36 5 0 5 C0 3.35 0 1.7 0 0 Z " fill="#25496E" transform="translate(149,384)"/>
<path d="M0 0 C0.66 1.32 1.32 2.64 2 4 C0.35 5.65 -1.3 7.3 -3 9 C-3.66 8.67 -4.32 8.34 -5 8 C-3.35 5.36 -1.7 2.72 0 0 Z " fill="#0A2753" transform="translate(536,537)"/>
<path d="M0 0 C0.99 0 1.98 0 3 0 C3 2.97 3 5.94 3 9 C0.87491756 5.81237635 0.4979837 3.73487777 0 0 Z " fill="#1D3459" transform="translate(654,292)"/>
<path d="M0 0 C0.66 0 1.32 0 2 0 C0.81323934 4.10801767 0.10551666 5.89448334 -3 9 C-2.01 6.03 -1.02 3.06 0 0 Z " fill="#11234B" transform="translate(168,253)"/>
<path d="M0 0 C-3.20336822 2.83374881 -5.78087253 3.5205537 -10 4 C-7.39928297 0.98864344 -3.94054294 -1.97027147 0 0 Z " fill="#0D2A57" transform="translate(252,42)"/>
</svg>
